<svg id="svg" version="1.1" xmlns="http://www.w3.org/2000/svg" xmlns:xlink="http://www.w3.org/1999/xlink" width="400" height="101.59362549800798" viewBox="0, 0, 400,101.59362549800798"><g id="svgg"><path id="path0" d="M117.667 28.188 C 110.421 29.420,105.431 32.833,103.030 38.197 C 102.197 40.058,102.000 40.564,102.000 40.845 C 102.000 41.011,101.933 41.188,101.852 41.239 C 101.770 41.289,101.667 41.575,101.624 41.873 C 101.580 42.172,101.392 43.167,101.206 44.083 C 100.268 48.715,100.403 55.886,101.502 59.750 C 101.580 60.025,101.733 60.587,101.842 61.000 C 101.951 61.413,102.138 61.975,102.258 62.250 C 102.378 62.525,102.633 63.125,102.825 63.583 C 103.018 64.042,103.248 64.529,103.338 64.667 C 103.427 64.804,103.568 65.067,103.651 65.250 C 104.108 66.268,106.197 68.747,107.589 69.925 C 109.717 71.725,112.292 72.916,115.750 73.698 C 116.977 73.976,124.364 74.073,125.500 73.826 C 127.917 73.302,128.652 73.114,129.500 72.804 C 130.004 72.619,130.585 72.429,130.792 72.382 C 130.998 72.334,131.167 72.228,131.167 72.147 C 131.167 72.066,131.291 72.000,131.442 72.000 C 131.813 72.000,134.749 70.019,135.583 69.206 C 137.052 67.776,138.402 65.718,139.163 63.750 C 139.234 63.567,139.387 63.192,139.503 62.917 C 139.758 62.311,139.964 61.441,140.193 60.000 C 140.506 58.028,141.004 58.256,136.271 58.205 C 131.800 58.157,131.767 58.163,131.573 59.048 C 131.444 59.634,131.460 59.595,130.595 61.354 C 129.769 63.033,127.405 65.333,126.506 65.333 C 126.408 65.333,126.199 65.404,126.039 65.491 C 124.330 66.423,120.044 66.557,117.582 65.754 C 112.096 63.967,109.500 59.244,109.500 51.054 C 109.500 47.975,109.561 47.367,110.110 45.000 C 111.147 40.520,113.999 37.428,118.083 36.354 C 120.848 35.627,125.688 35.908,126.742 36.857 C 126.829 36.936,127.035 37.000,127.200 37.000 C 127.365 37.000,127.500 37.075,127.500 37.167 C 127.500 37.258,127.587 37.333,127.693 37.333 C 128.226 37.333,130.151 39.418,130.693 40.583 C 131.233 41.746,131.938 42.543,132.824 42.995 C 133.532 43.356,140.194 43.527,140.403 43.189 C 140.772 42.591,138.778 36.190,138.007 35.500 C 137.955 35.454,137.719 35.117,137.482 34.750 C 136.156 32.703,132.836 30.213,130.250 29.327 C 128.685 28.791,128.042 28.623,126.333 28.307 C 125.102 28.079,118.815 27.993,117.667 28.188 M222.333 36.222 C 222.333 40.103,222.291 43.321,222.238 43.373 C 222.186 43.425,221.455 42.775,220.613 41.929 C 218.071 39.373,215.985 38.494,212.417 38.476 C 206.933 38.447,202.131 42.240,200.147 48.167 C 199.587 49.839,198.852 54.398,198.839 56.276 C 198.823 58.676,199.813 64.304,200.357 64.908 C 200.436 64.995,200.500 65.172,200.500 65.301 C 200.500 65.523,200.803 66.167,201.687 67.825 C 202.070 68.543,204.238 70.872,204.917 71.295 C 205.798 71.845,207.957 72.831,208.282 72.832 C 208.483 72.833,208.688 72.900,208.739 72.982 C 208.790 73.064,209.113 73.169,209.457 73.214 C 209.802 73.259,210.606 73.388,211.245 73.500 C 212.653 73.747,217.365 73.645,218.583 73.341 C 219.042 73.226,219.717 73.057,220.083 72.965 C 220.450 72.873,221.050 72.684,221.417 72.545 C 221.783 72.407,222.233 72.237,222.417 72.168 C 226.365 70.686,229.073 67.969,229.977 64.583 C 230.075 64.217,230.287 63.467,230.449 62.917 C 230.719 61.996,230.742 60.745,230.746 47.083 L 230.750 32.250 230.392 31.583 C 229.980 30.816,228.639 29.500,228.270 29.500 C 228.132 29.500,227.973 29.425,227.917 29.333 C 227.855 29.233,226.720 29.167,225.073 29.167 L 222.333 29.167 222.333 36.222 M235.167 32.654 L 235.167 36.006 239.458 35.961 L 243.750 35.917 243.797 34.047 C 243.841 32.292,243.819 32.138,243.428 31.547 C 242.840 30.655,242.667 30.466,241.930 29.910 L 241.276 29.417 238.222 29.359 L 235.167 29.302 235.167 32.654 M247.111 29.444 C 246.825 29.731,246.991 68.433,247.282 69.356 C 248.310 72.610,249.750 73.167,257.136 73.167 L 260.833 73.167 260.833 69.937 L 260.833 66.708 258.827 66.636 L 256.820 66.565 256.202 65.946 L 255.583 65.328 255.583 55.372 L 255.583 45.417 256.583 45.318 C 259.411 45.039,260.833 43.481,260.833 40.662 L 260.833 39.333 258.339 39.333 C 255.276 39.333,255.501 39.613,255.498 35.803 C 255.496 31.833,255.486 31.791,254.264 30.570 C 253.578 29.884,253.068 29.520,252.688 29.445 C 251.956 29.300,247.256 29.300,247.111 29.444 M281.606 29.499 C 280.331 29.898,279.290 31.034,278.776 32.587 C 278.523 33.351,278.502 35.143,278.541 53.253 L 278.583 73.083 288.917 73.137 C 301.868 73.204,304.062 73.016,307.296 71.562 C 307.780 71.345,308.210 71.167,308.251 71.167 C 308.880 71.167,311.575 68.787,312.449 67.461 C 313.984 65.129,314.404 63.495,314.411 59.833 C 314.421 54.754,312.637 51.642,308.730 49.924 C 307.856 49.539,307.920 49.243,309.021 48.584 C 311.666 47.000,313.083 44.122,313.083 40.333 C 313.083 35.047,310.462 31.431,305.667 30.100 C 305.071 29.935,304.396 29.715,304.167 29.612 C 303.649 29.379,282.329 29.272,281.606 29.499 M377.667 36.280 C 376.447 36.481,375.404 37.313,374.759 38.602 C 374.580 38.958,374.205 39.587,373.925 40.000 C 373.645 40.412,373.305 40.975,373.170 41.250 C 373.034 41.525,372.566 42.330,372.128 43.040 C 371.691 43.749,371.333 44.406,371.333 44.498 C 371.333 44.591,371.258 44.667,371.167 44.667 C 371.075 44.667,371.000 44.742,371.000 44.835 C 371.000 44.928,370.625 45.602,370.167 46.333 C 369.708 47.065,369.333 47.703,369.333 47.752 C 369.333 47.826,368.578 49.061,368.366 49.333 C 368.288 49.434,367.333 48.320,367.333 48.128 C 367.333 48.054,367.158 47.714,366.943 47.372 C 366.729 47.030,366.354 46.394,366.110 45.958 C 365.131 44.210,364.827 43.681,363.851 42.028 C 363.291 41.081,362.833 40.248,362.833 40.177 C 362.833 40.107,362.649 39.850,362.425 39.608 L 362.016 39.167 357.425 39.167 C 352.452 39.167,352.472 39.162,353.167 40.045 C 353.350 40.279,353.500 40.506,353.500 40.552 C 353.500 40.597,354.006 41.410,354.625 42.359 C 355.244 43.307,355.825 44.208,355.917 44.360 C 356.008 44.512,356.867 45.862,357.825 47.360 C 361.345 52.866,363.000 55.524,363.000 55.672 C 363.000 55.872,360.138 60.400,359.966 60.472 C 359.893 60.503,359.833 60.601,359.833 60.690 C 359.833 60.892,358.139 63.563,357.963 63.639 C 357.891 63.669,357.833 63.775,357.833 63.873 C 357.833 63.971,357.646 64.298,357.417 64.598 C 357.188 64.899,357.000 65.188,357.000 65.240 C 357.000 65.293,356.572 65.992,356.048 66.793 C 355.525 67.594,354.995 68.437,354.870 68.666 C 354.746 68.895,354.552 69.195,354.440 69.333 C 354.327 69.471,354.132 69.790,354.006 70.042 C 353.880 70.294,353.715 70.500,353.639 70.500 C 353.562 70.500,353.500 70.578,353.500 70.673 C 353.500 70.769,353.350 71.069,353.167 71.340 C 352.983 71.611,352.683 72.055,352.500 72.327 C 351.922 73.181,351.844 73.167,357.075 73.167 L 361.983 73.167 362.408 72.609 C 362.642 72.303,362.833 72.001,362.833 71.939 C 362.833 71.877,363.033 71.510,363.278 71.122 C 363.738 70.394,365.054 68.147,365.791 66.833 C 366.022 66.421,366.268 66.008,366.338 65.917 C 366.448 65.773,366.902 64.973,367.568 63.750 C 367.668 63.567,367.795 63.379,367.850 63.333 C 367.905 63.288,368.037 63.084,368.144 62.881 C 368.405 62.387,368.709 62.539,369.142 63.383 C 369.557 64.190,370.257 65.440,371.184 67.029 C 371.541 67.641,371.833 68.222,371.833 68.321 C 371.833 68.419,371.900 68.500,371.981 68.500 C 372.062 68.500,372.171 68.631,372.225 68.792 C 372.278 68.952,372.623 69.608,372.991 70.250 C 373.359 70.892,373.713 71.529,373.777 71.667 C 373.841 71.804,374.077 72.198,374.302 72.542 L 374.711 73.167 379.606 73.167 L 384.501 73.167 384.207 72.625 C 384.046 72.327,383.671 71.732,383.374 71.303 C 383.076 70.874,382.833 70.476,382.833 70.417 C 382.833 70.359,382.646 70.065,382.417 69.765 C 382.188 69.464,382.000 69.166,382.000 69.102 C 382.000 69.038,381.920 68.895,381.823 68.785 C 381.725 68.674,380.940 67.496,380.079 66.167 C 379.217 64.837,378.322 63.476,378.089 63.140 C 377.857 62.805,377.667 62.496,377.667 62.455 C 377.667 62.414,377.029 61.419,376.250 60.245 C 375.471 59.071,374.833 58.048,374.833 57.972 C 374.833 57.896,374.775 57.833,374.705 57.833 C 374.634 57.833,374.428 57.552,374.247 57.208 C 374.066 56.865,373.824 56.484,373.709 56.363 C 373.340 55.974,373.478 55.586,374.583 53.910 C 375.179 53.007,375.667 52.243,375.667 52.213 C 375.667 52.161,376.696 50.597,376.958 50.250 C 377.028 50.158,377.682 49.146,378.411 48.000 C 379.141 46.854,379.797 45.892,379.869 45.861 C 379.941 45.831,380.000 45.728,380.000 45.633 C 380.000 45.539,380.252 45.114,380.559 44.689 C 380.866 44.264,381.710 42.990,382.434 41.857 C 383.158 40.724,383.863 39.624,384.000 39.413 C 385.617 36.924,385.960 36.349,385.876 36.265 C 385.768 36.157,378.334 36.171,377.667 36.280 M300.195 36.888 C 300.806 36.996,301.362 37.140,301.431 37.209 C 301.499 37.277,301.681 37.333,301.835 37.333 C 301.988 37.333,302.420 37.634,302.795 38.002 C 304.930 40.094,304.340 44.462,301.775 45.558 C 300.412 46.140,300.053 46.167,293.613 46.167 L 287.167 46.167 287.167 41.528 C 287.167 38.976,287.217 36.839,287.278 36.778 C 287.476 36.580,299.001 36.679,300.195 36.888 M180.083 38.492 C 179.900 38.575,179.230 38.649,178.595 38.655 C 177.960 38.661,177.210 38.735,176.928 38.818 C 174.023 39.677,173.241 40.019,171.750 41.083 C 166.332 44.950,164.318 52.522,166.144 62.167 C 166.748 65.355,169.089 69.080,171.750 71.088 C 172.443 71.611,174.780 72.833,175.086 72.833 C 175.225 72.833,175.468 72.899,175.627 72.980 C 176.926 73.640,182.131 73.892,184.608 73.416 C 190.135 72.353,193.856 69.252,195.750 64.131 C 196.258 62.757,196.349 62.789,192.110 62.857 L 188.391 62.917 187.737 63.409 C 187.377 63.680,186.985 64.037,186.865 64.202 C 184.680 67.203,178.630 67.349,176.301 64.456 C 175.177 63.060,174.676 61.700,174.550 59.708 L 174.474 58.500 185.307 58.500 C 191.265 58.500,196.258 58.454,196.403 58.399 C 196.727 58.275,196.779 54.735,196.489 52.583 C 195.793 47.422,193.559 43.132,190.583 41.242 C 190.308 41.067,190.046 40.885,190.000 40.837 C 189.174 39.973,185.797 38.903,183.167 38.672 C 182.296 38.595,181.321 38.489,181.000 38.437 C 180.679 38.384,180.267 38.409,180.083 38.492 M331.500 38.489 C 331.362 38.584,330.825 38.663,330.305 38.664 C 329.417 38.667,327.662 39.009,326.917 39.325 C 326.733 39.403,326.321 39.564,326.000 39.683 C 320.072 41.887,316.456 49.804,317.415 58.481 C 317.573 59.912,317.769 61.210,317.851 61.364 C 317.933 61.518,318.000 61.871,318.000 62.148 C 318.000 62.425,318.066 62.823,318.146 63.034 C 318.226 63.244,318.425 63.829,318.588 64.333 C 319.947 68.527,323.301 71.799,327.333 72.868 C 330.409 73.682,333.710 73.921,335.852 73.483 C 338.239 72.995,340.333 72.361,340.333 72.126 C 340.333 72.057,340.446 72.000,340.583 72.000 C 341.850 72.000,346.667 66.800,346.667 65.431 C 346.667 65.375,346.805 65.012,346.974 64.623 C 347.912 62.468,348.207 60.966,348.434 57.184 C 348.549 55.279,348.321 52.094,347.973 50.750 C 346.820 46.286,345.068 43.256,342.583 41.425 C 342.217 41.155,341.879 40.887,341.833 40.830 C 341.731 40.702,339.447 39.604,338.722 39.334 C 336.966 38.681,332.055 38.106,331.500 38.489 M160.833 39.267 C 160.696 39.301,159.908 39.403,159.083 39.494 C 151.912 40.285,147.456 43.539,145.380 49.500 C 144.475 52.100,144.341 53.986,144.337 64.208 L 144.333 73.167 148.667 73.167 L 153.000 73.167 152.999 64.292 C 152.998 55.977,153.104 53.442,153.494 52.417 C 154.323 50.242,155.572 49.041,157.667 48.407 C 157.896 48.338,159.246 48.237,160.667 48.182 L 163.250 48.083 163.297 44.000 C 163.356 38.855,163.431 39.162,162.122 39.186 C 161.551 39.197,160.971 39.233,160.833 39.267 M235.167 56.167 L 235.167 73.167 239.500 73.167 L 243.833 73.167 243.830 57.792 C 243.826 43.000,243.814 42.390,243.507 41.713 C 243.143 40.913,242.138 39.833,241.756 39.833 C 241.615 39.833,241.500 39.775,241.500 39.705 C 241.500 39.418,239.610 39.167,237.453 39.167 L 235.167 39.167 235.167 56.167 M183.187 45.918 C 185.685 46.778,186.648 47.886,187.430 50.800 C 188.046 53.097,188.302 53.015,180.692 52.960 L 174.583 52.917 174.602 51.750 C 174.671 47.522,179.103 44.511,183.187 45.918 M334.667 45.961 C 336.971 46.688,339.048 49.125,339.600 51.750 C 339.940 53.367,339.708 61.019,339.311 61.264 C 339.232 61.313,339.167 61.468,339.167 61.610 C 339.167 62.714,337.044 65.458,335.694 66.099 C 331.905 67.897,327.914 65.965,326.528 61.663 C 325.603 58.792,325.596 51.560,326.516 50.592 C 326.599 50.505,326.667 50.305,326.667 50.149 C 326.667 47.560,331.581 44.987,334.667 45.961 M217.949 46.615 C 221.483 48.322,223.114 53.604,222.031 59.833 C 221.505 62.858,219.055 66.167,217.341 66.167 C 217.164 66.167,216.973 66.242,216.917 66.333 C 216.589 66.863,212.840 66.443,211.442 65.720 C 210.291 65.125,208.322 62.554,208.331 61.658 C 208.332 61.516,208.264 61.329,208.179 61.242 C 207.051 60.080,207.350 52.717,208.636 50.000 C 210.321 46.440,214.468 44.933,217.949 46.615 M301.167 53.902 C 302.786 54.297,303.578 54.779,304.504 55.933 C 305.401 57.051,305.602 60.921,304.840 62.403 C 304.138 63.768,303.054 64.528,300.917 65.153 C 300.445 65.291,298.353 65.333,293.750 65.299 L 287.250 65.250 287.206 59.668 C 287.182 56.598,287.198 53.991,287.242 53.876 C 287.362 53.565,299.880 53.588,301.167 53.902 " stroke="none" fill="#050505" fill-rule="evenodd"></path><path id="path1" d="M44.500 13.002 C 44.271 13.075,43.633 13.264,43.083 13.420 C 41.787 13.790,41.593 13.863,40.500 14.394 C 39.996 14.638,39.496 14.837,39.389 14.836 C 39.282 14.835,39.169 14.890,39.139 14.958 C 39.108 15.027,38.750 15.300,38.342 15.566 C 37.014 16.431,36.328 17.061,30.448 22.823 C 27.681 25.534,24.404 28.727,23.167 29.918 C 21.929 31.109,20.542 32.522,20.083 33.058 C 19.625 33.595,19.156 34.133,19.042 34.255 C 18.927 34.377,18.833 34.531,18.833 34.597 C 18.833 34.664,18.662 34.951,18.451 35.234 C 17.935 35.932,16.917 38.077,16.664 39.000 C 16.551 39.412,16.337 40.125,16.188 40.583 C 15.950 41.315,15.917 42.620,15.917 51.250 C 15.917 61.468,15.971 62.359,16.681 63.706 C 16.765 63.865,16.833 64.095,16.833 64.217 C 16.833 64.338,17.021 64.826,17.250 65.301 C 17.479 65.776,17.667 66.240,17.667 66.333 C 17.667 66.425,17.742 66.500,17.833 66.500 C 17.925 66.500,18.000 66.616,18.000 66.757 C 18.000 66.898,18.073 67.105,18.163 67.215 C 18.253 67.326,18.717 67.942,19.194 68.583 C 20.021 69.694,20.762 70.451,26.583 76.133 C 27.958 77.475,30.771 80.228,32.833 82.250 C 36.393 85.740,38.262 87.281,39.917 88.091 C 40.283 88.270,40.608 88.473,40.639 88.542 C 40.669 88.610,40.863 88.667,41.069 88.667 C 41.276 88.667,41.494 88.716,41.555 88.777 C 41.738 88.960,43.378 89.500,43.752 89.500 C 43.943 89.500,44.188 89.588,44.296 89.696 C 44.586 89.986,50.678 89.987,51.667 89.697 C 54.202 88.954,54.320 88.912,55.750 88.241 C 57.391 87.471,59.378 85.934,61.738 83.609 C 62.963 82.403,65.341 80.071,67.024 78.426 C 74.340 71.273,75.743 69.875,76.313 69.167 C 76.645 68.754,76.973 68.392,77.042 68.361 C 77.110 68.331,77.167 68.208,77.167 68.090 C 77.167 67.971,77.266 67.792,77.388 67.691 C 77.509 67.590,77.894 66.924,78.243 66.212 C 78.591 65.500,78.942 64.786,79.022 64.627 C 79.101 64.468,79.167 64.223,79.167 64.083 C 79.167 63.943,79.239 63.699,79.327 63.539 C 79.842 62.606,79.903 61.459,79.957 51.583 C 80.005 42.846,79.979 41.468,79.748 40.667 C 79.603 40.162,79.403 39.450,79.304 39.083 C 79.205 38.717,78.946 38.021,78.729 37.537 C 78.511 37.053,78.333 36.585,78.333 36.495 C 78.333 36.406,78.258 36.333,78.167 36.333 C 78.075 36.333,78.000 36.253,78.000 36.154 C 78.000 35.677,76.326 33.485,74.794 31.956 C 70.530 27.703,59.534 16.983,59.083 16.641 C 58.808 16.432,58.546 16.215,58.500 16.158 C 57.991 15.527,54.680 13.908,52.917 13.428 C 52.367 13.278,51.686 13.083,51.405 12.995 C 50.798 12.804,45.101 12.810,44.500 13.002 M50.367 19.310 C 50.798 19.407,51.285 19.556,51.450 19.641 C 51.615 19.726,52.189 20.010,52.725 20.273 C 53.642 20.721,54.500 21.395,54.500 21.666 C 54.500 21.733,53.731 22.518,52.792 23.411 C 51.852 24.305,49.846 26.219,48.333 27.665 C 46.821 29.111,45.321 30.509,45.000 30.771 C 44.679 31.033,44.147 31.510,43.818 31.832 C 43.217 32.419,42.571 33.033,37.850 37.500 C 34.690 40.490,34.337 41.036,34.335 42.934 C 34.332 45.094,34.473 45.288,39.345 49.862 C 40.484 50.931,42.127 52.484,42.995 53.311 C 46.315 56.477,49.042 56.602,52.083 53.728 C 52.725 53.121,54.487 51.446,56.000 50.004 C 57.512 48.562,59.208 46.959,59.767 46.443 C 62.316 44.089,62.375 41.140,59.922 38.792 C 58.911 37.825,58.994 37.825,58.019 38.792 C 56.937 39.864,52.169 44.401,50.855 45.608 C 50.271 46.144,49.333 47.037,48.771 47.592 C 47.185 49.159,47.593 49.273,44.594 46.430 C 41.266 43.276,40.978 42.167,42.977 40.199 C 44.094 39.099,49.246 34.198,49.671 33.831 C 49.898 33.635,51.433 32.182,53.083 30.602 C 57.131 26.727,58.462 25.500,58.618 25.500 C 58.815 25.501,59.406 26.036,62.893 29.371 C 64.644 31.046,66.713 33.017,67.490 33.750 C 69.998 36.115,71.243 37.439,71.582 38.102 C 71.764 38.458,71.952 38.787,71.998 38.833 C 72.408 39.236,72.902 41.375,72.902 42.750 C 72.902 44.179,72.303 46.667,71.959 46.667 C 71.890 46.667,71.833 46.779,71.833 46.916 C 71.833 47.398,70.668 48.780,68.716 50.613 C 66.454 52.738,66.066 53.106,62.333 56.668 C 60.821 58.111,59.208 59.631,58.750 60.046 C 58.292 60.461,57.310 61.389,56.569 62.109 C 54.367 64.245,54.023 64.523,52.552 65.352 C 49.747 66.936,44.358 66.595,42.363 64.708 C 42.242 64.594,42.090 64.500,42.025 64.500 C 41.961 64.500,41.272 63.893,40.496 63.151 C 39.719 62.409,38.746 61.495,38.333 61.121 C 37.921 60.746,36.271 59.186,34.667 57.654 C 33.063 56.122,31.042 54.205,30.176 53.393 C 23.983 47.585,23.000 46.127,23.000 42.750 C 23.000 39.438,23.966 37.967,29.673 32.583 C 30.450 31.850,32.510 29.895,34.251 28.240 C 38.364 24.328,39.914 22.860,40.833 22.001 C 41.588 21.297,42.893 20.400,43.667 20.054 C 45.033 19.443,45.339 19.332,45.692 19.322 C 45.907 19.315,46.233 19.242,46.417 19.159 C 46.824 18.974,49.294 19.069,50.367 19.310 " stroke="none" fill="#4cbc0c" fill-rule="evenodd"></path><path id="path2" d="M0.000 50.750 L 0.000 101.500 200.000 101.500 L 400.000 101.500 400.000 50.750 L 400.000 0.000 200.000 0.000 L 0.000 0.000 0.000 50.750 M49.981 12.508 C 53.013 12.989,54.799 13.585,56.996 14.846 C 58.148 15.508,59.977 17.029,62.000 19.007 C 63.237 20.218,66.868 23.767,70.067 26.896 C 76.951 33.627,78.633 35.679,79.376 38.250 C 80.488 42.100,80.545 42.832,80.450 52.250 C 80.327 64.551,79.766 66.315,74.252 71.748 C 71.593 74.369,66.749 79.115,62.215 83.539 C 56.935 88.692,53.479 90.333,47.907 90.333 C 42.710 90.333,39.118 88.695,34.417 84.181 C 17.822 68.246,16.598 66.724,15.688 60.872 C 15.441 59.283,15.429 43.218,15.674 41.971 C 16.065 39.981,16.401 38.644,16.530 38.565 C 16.605 38.518,16.667 38.354,16.667 38.198 C 16.670 37.220,18.824 33.911,20.703 32.000 C 33.660 18.818,38.467 14.632,42.000 13.456 C 45.118 12.417,47.571 12.126,49.981 12.508 M46.558 19.493 C 44.059 19.785,42.691 20.629,38.937 24.194 C 37.459 25.598,35.654 27.309,34.926 27.998 C 34.198 28.687,32.736 30.078,31.676 31.091 C 30.617 32.104,29.189 33.454,28.503 34.091 C 24.018 38.258,22.938 40.382,23.451 44.032 C 23.802 46.539,24.715 47.858,28.667 51.570 C 30.429 53.225,35.440 57.977,37.750 60.183 C 38.575 60.971,39.662 62.010,40.167 62.491 C 43.080 65.274,44.767 66.038,48.000 66.041 C 51.617 66.044,52.685 65.452,57.667 60.689 C 59.271 59.155,61.219 57.304,61.995 56.575 C 68.393 50.571,71.176 47.752,71.612 46.833 C 72.414 45.145,72.528 44.636,72.531 42.753 C 72.535 39.478,71.338 37.452,67.381 34.039 C 67.178 33.864,65.715 32.484,64.131 30.971 C 59.926 26.958,58.817 25.923,58.659 25.864 C 58.581 25.835,57.707 26.588,56.717 27.537 C 55.727 28.485,54.361 29.784,53.683 30.423 C 53.004 31.061,52.174 31.846,51.838 32.167 C 51.503 32.487,49.922 33.987,48.326 35.500 C 42.207 41.300,42.322 41.179,42.219 41.948 C 42.065 43.099,42.279 43.760,43.059 44.539 C 44.581 46.060,47.195 48.500,47.303 48.500 C 47.417 48.499,48.219 47.756,51.510 44.603 C 52.477 43.675,53.902 42.322,54.676 41.595 C 55.450 40.869,56.700 39.688,57.453 38.970 C 59.087 37.415,58.893 37.440,60.123 38.625 C 61.900 40.337,62.487 42.705,61.602 44.583 C 61.089 45.671,51.710 54.751,50.364 55.462 C 49.127 56.117,47.773 56.280,46.466 55.931 C 44.899 55.513,44.899 55.513,41.833 52.601 C 41.146 51.948,39.395 50.289,37.942 48.915 C 34.632 45.784,34.267 45.278,33.883 43.285 C 33.782 42.761,34.074 41.541,34.510 40.667 C 34.880 39.923,38.487 36.389,45.250 30.145 C 47.006 28.523,49.014 26.631,50.824 24.893 C 51.792 23.963,52.958 22.854,53.417 22.429 L 54.250 21.655 53.791 21.279 C 52.101 19.895,49.214 19.183,46.558 19.493 M124.667 27.838 C 126.272 28.027,127.761 28.275,128.500 28.478 C 129.980 28.883,132.195 29.793,132.306 30.042 C 132.336 30.110,132.477 30.167,132.618 30.167 C 133.622 30.167,138.333 34.679,138.333 35.641 C 138.333 35.731,138.390 35.831,138.458 35.861 C 138.578 35.914,138.881 36.514,139.329 37.583 C 139.445 37.858,139.604 38.212,139.684 38.369 C 140.051 39.093,140.526 41.472,140.558 42.750 L 140.583 43.750 137.417 43.734 C 132.466 43.708,131.713 43.326,130.024 39.985 C 129.338 38.629,127.146 37.009,125.600 36.717 C 125.316 36.664,125.008 36.565,124.917 36.499 C 124.150 35.941,118.581 36.290,116.917 37.000 C 116.642 37.117,116.174 37.318,115.878 37.446 C 112.087 39.086,109.661 44.458,109.666 51.205 C 109.667 53.520,110.278 57.600,110.695 58.075 C 110.771 58.162,110.833 58.364,110.833 58.525 C 110.833 58.685,111.021 59.168,111.250 59.599 C 111.479 60.030,111.667 60.484,111.667 60.608 C 111.667 60.732,111.728 60.833,111.803 60.833 C 111.877 60.833,112.097 61.115,112.290 61.458 C 113.087 62.875,115.166 64.557,117.083 65.336 C 119.093 66.153,123.972 66.137,125.833 65.308 C 127.540 64.548,128.779 63.682,129.356 62.845 C 129.573 62.531,129.825 62.194,129.917 62.095 C 130.163 61.833,131.000 60.113,131.000 59.870 C 131.000 59.756,131.066 59.532,131.147 59.373 C 131.228 59.214,131.361 58.858,131.443 58.583 L 131.591 58.083 136.144 58.039 L 140.697 57.995 140.611 58.956 C 140.475 60.486,140.090 62.240,139.667 63.250 C 139.553 63.525,139.384 63.938,139.293 64.167 C 138.882 65.204,138.088 66.590,137.316 67.619 C 136.392 68.852,134.106 70.992,133.708 70.997 C 133.594 70.999,133.499 71.056,133.499 71.125 C 133.498 71.194,133.329 71.334,133.124 71.436 C 132.918 71.538,132.225 71.889,131.583 72.217 C 130.287 72.878,129.608 73.114,126.917 73.839 C 123.830 74.672,114.973 74.424,113.925 73.477 C 113.838 73.398,113.593 73.333,113.381 73.333 C 113.169 73.333,112.865 73.269,112.706 73.191 C 112.547 73.113,112.154 72.934,111.833 72.793 C 110.107 72.034,109.910 71.924,108.417 70.893 C 107.418 70.204,105.424 68.287,104.887 67.500 C 104.731 67.271,104.552 67.046,104.490 67.000 C 104.083 66.700,102.739 64.180,102.089 62.500 C 101.930 62.087,101.732 61.620,101.650 61.461 C 101.567 61.301,101.500 60.982,101.500 60.750 C 101.500 60.518,101.430 60.199,101.344 60.039 C 100.265 58.031,100.078 47.489,101.045 43.136 C 101.161 42.615,101.310 42.134,101.378 42.067 C 101.445 42.000,101.500 41.788,101.500 41.597 C 101.500 41.268,101.894 40.116,102.444 38.833 C 104.149 34.862,107.263 31.650,111.250 29.751 C 112.265 29.267,112.401 29.214,113.583 28.830 C 116.560 27.865,121.297 27.441,124.667 27.838 M228.417 29.220 C 229.613 29.867,230.539 31.010,230.928 32.318 C 231.477 34.169,231.104 62.539,230.515 63.638 C 230.415 63.825,230.333 64.166,230.333 64.396 C 230.333 64.626,230.258 64.860,230.167 64.917 C 230.075 64.973,230.000 65.152,230.000 65.313 C 230.000 66.691,227.302 69.972,225.245 71.096 C 224.574 71.463,223.234 72.127,222.750 72.332 C 222.475 72.449,222.100 72.611,221.917 72.691 C 219.026 73.965,212.620 74.386,209.583 73.502 C 209.308 73.421,208.746 73.263,208.333 73.150 C 206.131 72.546,203.637 70.920,202.383 69.271 C 201.416 68.001,199.833 64.899,199.833 64.276 C 199.833 64.135,199.758 63.973,199.667 63.917 C 199.575 63.860,199.500 63.560,199.500 63.250 C 199.500 62.940,199.425 62.640,199.333 62.583 C 199.242 62.527,199.167 62.241,199.167 61.948 C 199.167 61.656,199.054 60.829,198.917 60.110 C 198.340 57.094,198.742 51.818,199.815 48.333 C 200.145 47.264,201.563 44.346,201.977 43.887 C 202.127 43.720,202.473 43.283,202.745 42.917 C 203.383 42.059,205.021 40.505,205.292 40.502 C 205.406 40.501,205.500 40.431,205.500 40.348 C 205.500 40.197,207.780 39.043,208.750 38.702 C 210.332 38.147,215.497 38.133,216.075 38.683 C 216.162 38.766,216.342 38.833,216.475 38.833 C 217.331 38.833,219.773 40.449,221.167 41.938 L 222.083 42.917 222.125 36.083 C 222.148 32.325,222.205 29.148,222.252 29.022 C 222.383 28.674,227.723 28.845,228.417 29.220 M240.917 29.167 C 240.973 29.258,241.129 29.333,241.263 29.333 C 242.758 29.333,244.051 31.473,244.138 34.092 C 244.221 36.600,244.756 36.359,239.250 36.297 L 235.083 36.250 235.038 32.625 L 234.993 29.000 237.904 29.000 C 239.664 29.000,240.854 29.066,240.917 29.167 M253.283 29.426 C 254.549 30.099,254.868 30.469,255.644 32.167 C 255.760 32.421,255.850 33.819,255.875 35.750 L 255.917 38.917 258.417 39.000 L 260.917 39.083 260.965 40.735 C 260.993 41.721,260.943 42.457,260.840 42.560 C 260.745 42.655,260.667 42.855,260.667 43.003 C 260.667 44.012,258.373 45.500,256.818 45.500 L 255.833 45.500 255.833 55.266 C 255.833 67.255,255.519 66.158,259.000 66.325 L 260.917 66.417 260.962 69.855 L 261.007 73.294 259.729 73.413 C 258.095 73.566,251.600 73.360,250.833 73.131 C 249.150 72.627,248.024 71.807,247.511 70.713 C 247.392 70.458,247.226 70.116,247.142 69.952 C 247.058 69.788,246.919 69.113,246.833 68.452 C 246.657 67.093,246.603 29.286,246.778 29.111 C 247.143 28.746,252.491 29.005,253.283 29.426 M303.667 29.281 C 304.778 29.477,306.026 29.839,306.242 30.028 C 306.329 30.104,306.528 30.167,306.685 30.167 C 307.002 30.167,308.718 31.009,308.806 31.207 C 308.836 31.276,308.951 31.333,309.062 31.333 C 309.607 31.333,312.500 34.796,312.500 35.449 C 312.500 35.571,312.568 35.801,312.650 35.961 C 313.281 37.175,313.531 42.368,313.021 43.667 C 312.486 45.028,311.932 46.167,311.804 46.167 C 311.728 46.167,311.667 46.247,311.667 46.345 C 311.667 46.644,310.161 48.136,309.305 48.685 C 308.304 49.327,308.304 49.488,309.306 49.962 C 310.748 50.643,312.817 52.550,313.417 53.750 C 313.600 54.117,313.788 54.454,313.835 54.500 C 313.970 54.633,314.446 56.169,314.662 57.167 C 315.030 58.873,314.749 62.951,314.150 64.583 C 313.378 66.688,312.950 67.409,311.500 69.055 C 310.467 70.227,307.363 72.167,306.520 72.167 C 306.362 72.167,306.162 72.229,306.075 72.305 C 305.928 72.435,304.695 72.732,302.500 73.168 C 301.874 73.293,297.906 73.335,290.000 73.300 L 278.417 73.250 278.374 53.083 C 278.329 31.947,278.348 31.333,279.033 31.333 C 279.106 31.333,279.167 31.236,279.167 31.116 C 279.167 30.822,280.117 29.948,280.833 29.583 C 281.154 29.420,281.529 29.225,281.667 29.151 C 282.017 28.961,302.546 29.082,303.667 29.281 M386.205 35.927 C 386.366 36.088,386.100 36.790,385.708 37.239 C 385.502 37.476,385.333 37.707,385.333 37.753 C 385.333 37.799,384.902 38.491,384.375 39.292 C 383.848 40.092,383.267 40.985,383.083 41.277 C 381.658 43.542,380.407 45.426,380.298 45.472 C 380.226 45.503,380.167 45.605,380.167 45.700 C 380.167 45.795,379.923 46.220,379.625 46.644 C 379.327 47.069,379.008 47.542,378.917 47.695 C 378.132 49.004,376.086 52.095,375.974 52.139 C 375.897 52.169,375.833 52.268,375.833 52.358 C 375.833 52.448,375.646 52.768,375.417 53.069 C 375.188 53.369,375.000 53.664,375.000 53.724 C 375.000 53.784,374.738 54.198,374.417 54.645 C 373.892 55.375,373.633 56.333,373.960 56.333 C 374.030 56.333,374.162 56.480,374.252 56.659 C 374.343 56.838,375.129 58.079,376.000 59.417 C 376.871 60.755,377.658 61.978,377.750 62.133 C 377.842 62.289,377.955 62.454,378.002 62.500 C 378.211 62.706,379.000 64.009,379.000 64.149 C 379.000 64.235,379.064 64.331,379.143 64.361 C 379.221 64.392,379.681 65.054,380.165 65.833 C 380.648 66.612,381.286 67.587,381.582 68.000 C 381.878 68.412,382.150 68.825,382.185 68.917 C 382.221 69.008,382.833 69.970,383.544 71.053 C 384.256 72.136,384.796 73.093,384.743 73.178 C 384.564 73.468,374.576 73.375,374.332 73.081 C 374.050 72.742,373.533 71.853,373.291 71.292 C 373.182 71.040,373.035 70.833,372.963 70.833 C 372.892 70.833,372.833 70.683,372.833 70.500 C 372.833 70.317,372.771 70.167,372.695 70.167 C 372.619 70.167,372.300 69.676,371.987 69.076 C 371.111 67.401,370.784 66.802,370.352 66.081 C 369.784 65.131,369.337 64.343,368.961 63.625 C 368.552 62.846,368.294 62.835,368.000 63.583 C 367.874 63.904,367.719 64.167,367.655 64.167 C 367.591 64.167,367.495 64.298,367.441 64.458 C 367.387 64.619,367.247 64.897,367.130 65.077 C 366.670 65.783,365.909 67.097,365.098 68.583 C 364.998 68.767,364.879 68.954,364.833 69.000 C 364.787 69.046,364.668 69.233,364.568 69.417 C 363.819 70.792,363.440 71.447,363.285 71.638 C 363.186 71.759,362.949 72.172,362.759 72.554 L 362.413 73.250 357.250 73.294 C 354.410 73.318,351.991 73.301,351.873 73.256 C 351.663 73.176,353.195 70.489,353.524 70.361 C 353.602 70.331,353.667 70.239,353.667 70.158 C 353.667 69.965,355.370 67.267,355.538 67.194 C 355.609 67.164,355.667 67.058,355.667 66.960 C 355.667 66.862,355.854 66.536,356.083 66.235 C 356.313 65.935,356.500 65.645,356.500 65.591 C 356.500 65.441,357.400 64.091,357.542 64.028 C 357.610 63.997,357.667 63.892,357.667 63.794 C 357.667 63.695,357.854 63.369,358.083 63.069 C 358.313 62.768,358.500 62.442,358.500 62.344 C 358.500 62.247,358.556 62.166,358.625 62.165 C 358.694 62.164,358.893 61.864,359.068 61.498 C 359.244 61.132,359.450 60.833,359.527 60.833 C 359.604 60.833,359.667 60.747,359.667 60.641 C 359.667 60.535,359.854 60.202,360.083 59.902 C 360.313 59.601,360.500 59.304,360.500 59.241 C 360.500 59.177,360.837 58.653,361.250 58.075 C 361.662 57.497,362.000 56.984,362.000 56.936 C 362.000 56.888,362.188 56.571,362.418 56.233 L 362.835 55.617 362.418 55.070 C 362.188 54.769,362.000 54.442,362.000 54.344 C 362.000 54.247,361.925 54.167,361.833 54.167 C 361.742 54.167,361.667 54.080,361.667 53.974 C 361.667 53.868,361.479 53.536,361.250 53.235 C 361.021 52.935,360.833 52.635,360.833 52.569 C 360.833 52.502,360.646 52.202,360.417 51.902 C 360.188 51.601,360.000 51.276,360.000 51.178 C 360.000 51.080,359.925 51.000,359.833 51.000 C 359.742 51.000,359.667 50.920,359.667 50.822 C 359.667 50.724,359.479 50.399,359.250 50.098 C 359.021 49.798,358.833 49.465,358.833 49.359 C 358.833 49.253,358.758 49.167,358.667 49.167 C 358.575 49.167,358.500 49.087,358.500 48.989 C 358.500 48.891,358.313 48.565,358.083 48.265 C 357.854 47.964,357.667 47.638,357.667 47.540 C 357.667 47.442,357.610 47.336,357.542 47.306 C 357.362 47.226,356.500 45.873,356.500 45.670 C 356.500 45.577,356.442 45.500,356.371 45.500 C 356.300 45.500,356.095 45.219,355.914 44.875 C 355.734 44.531,355.548 44.212,355.500 44.167 C 355.293 43.967,354.500 42.659,354.500 42.517 C 354.500 42.431,354.442 42.336,354.371 42.306 C 354.155 42.212,352.500 39.505,352.500 39.244 C 352.500 39.035,353.212 39.000,357.458 39.000 L 362.417 39.000 362.917 39.864 C 363.192 40.339,363.573 40.995,363.764 41.322 C 363.956 41.649,364.306 42.265,364.543 42.692 C 364.781 43.118,365.168 43.773,365.404 44.147 C 365.640 44.521,365.833 44.867,365.833 44.917 C 365.833 44.966,366.025 45.310,366.259 45.681 C 366.738 46.440,367.222 47.285,367.706 48.208 C 368.095 48.951,368.361 48.997,368.675 48.375 C 368.802 48.123,369.153 47.521,369.453 47.038 C 369.754 46.555,370.000 46.123,370.000 46.078 C 370.000 46.033,370.384 45.383,370.854 44.633 C 371.324 43.884,371.898 42.928,372.129 42.510 C 372.361 42.092,372.595 41.712,372.651 41.667 C 372.706 41.621,372.861 41.358,372.997 41.083 C 373.132 40.808,373.413 40.351,373.622 40.068 C 373.830 39.784,374.000 39.501,374.000 39.439 C 374.000 38.437,376.082 36.404,377.500 36.021 C 378.120 35.853,386.046 35.768,386.205 35.927 M287.458 37.096 C 287.390 37.165,287.333 39.197,287.333 41.611 L 287.333 46.000 293.208 46.000 C 301.141 46.000,303.008 45.536,303.446 43.455 C 303.499 43.201,303.608 42.953,303.688 42.903 C 303.909 42.767,303.861 40.354,303.625 39.678 C 303.399 39.033,303.275 38.842,302.716 38.284 C 302.084 37.651,301.857 37.500,301.540 37.500 C 301.371 37.500,301.140 37.406,301.025 37.292 C 300.790 37.056,287.685 36.867,287.458 37.096 M184.333 38.475 C 185.596 38.672,186.860 39.012,187.674 39.375 C 187.991 39.516,188.362 39.674,188.500 39.726 C 189.160 39.978,190.739 40.994,191.517 41.667 C 191.994 42.079,192.437 42.454,192.503 42.500 C 193.133 42.940,194.853 45.759,195.502 47.417 C 196.258 49.344,196.450 50.202,196.826 53.333 C 197.034 55.067,197.035 57.956,196.827 58.344 C 196.660 58.658,196.360 58.667,185.661 58.667 L 174.667 58.667 174.667 59.115 C 174.667 59.701,174.996 61.470,175.205 62.000 C 175.496 62.740,175.912 63.579,176.083 63.769 C 176.175 63.872,176.419 64.155,176.627 64.398 C 178.895 67.060,183.787 66.919,186.565 64.112 C 188.082 62.577,188.391 62.500,192.982 62.500 L 196.371 62.500 196.253 63.292 C 196.188 63.727,196.019 64.308,195.877 64.583 C 195.398 65.513,195.333 65.662,195.333 65.844 C 195.333 66.466,192.948 69.532,191.750 70.448 C 191.294 70.798,190.794 71.196,190.640 71.333 C 189.997 71.906,186.836 73.333,186.210 73.333 C 185.948 73.333,185.662 73.399,185.575 73.479 C 184.821 74.174,178.649 74.104,175.833 73.369 C 172.782 72.572,169.345 69.842,167.710 66.917 C 167.126 65.872,166.833 65.211,166.342 63.833 C 165.214 60.669,164.922 55.220,165.656 51.000 C 165.959 49.253,166.507 47.333,166.701 47.333 C 166.774 47.333,166.833 47.191,166.833 47.016 C 166.833 46.666,167.764 44.946,168.467 43.996 C 169.209 42.995,170.386 41.667,170.533 41.667 C 170.608 41.667,170.892 41.469,171.163 41.227 C 171.722 40.729,173.434 39.667,173.677 39.667 C 173.766 39.667,173.968 39.600,174.127 39.519 C 175.315 38.915,176.705 38.505,177.583 38.499 C 177.950 38.497,178.362 38.419,178.500 38.326 C 178.798 38.126,182.740 38.226,184.333 38.475 M336.417 38.463 C 337.952 38.716,338.622 38.928,340.167 39.651 C 341.797 40.414,342.775 41.103,344.055 42.389 C 344.856 43.193,346.333 45.311,346.333 45.654 C 346.333 45.753,346.408 45.833,346.500 45.833 C 346.592 45.833,346.667 45.926,346.667 46.039 C 346.667 46.153,346.847 46.621,347.067 47.081 C 347.552 48.095,348.172 50.088,348.389 51.333 C 348.581 52.432,348.620 59.603,348.441 60.667 C 348.278 61.630,347.859 63.167,347.657 63.539 C 347.571 63.699,347.500 63.928,347.500 64.050 C 347.500 64.171,347.360 64.566,347.189 64.927 C 347.017 65.288,346.740 65.883,346.572 66.250 C 345.844 67.839,342.865 71.333,342.239 71.333 C 342.130 71.333,341.952 71.440,341.844 71.571 C 341.420 72.082,338.456 73.326,337.653 73.331 C 337.416 73.332,337.166 73.389,337.098 73.458 C 336.893 73.662,334.348 73.986,332.917 73.989 C 331.399 73.993,327.809 73.458,327.417 73.169 C 327.325 73.101,327.035 72.995,326.773 72.932 C 323.936 72.253,320.406 69.181,319.077 66.236 C 318.832 65.694,318.564 65.100,318.480 64.917 C 318.097 64.076,317.976 63.559,317.347 60.083 C 316.309 54.341,317.627 47.352,320.432 43.726 C 321.429 42.438,323.533 40.516,323.958 40.505 C 324.073 40.502,324.167 40.439,324.167 40.364 C 324.167 40.289,324.635 40.018,325.208 39.760 C 325.781 39.503,326.379 39.228,326.536 39.149 C 327.031 38.899,328.215 38.629,329.167 38.548 C 329.671 38.506,330.158 38.399,330.249 38.311 C 330.452 38.117,334.993 38.228,336.417 38.463 M163.461 43.625 L 163.417 48.250 161.167 48.359 C 156.332 48.592,154.897 49.416,153.664 52.667 C 153.493 53.117,153.421 55.532,153.346 63.250 L 153.250 73.250 148.706 73.294 L 144.162 73.339 144.224 63.128 C 144.289 52.505,144.335 51.742,145.044 49.644 C 146.175 46.296,147.841 44.007,150.500 42.149 C 152.726 40.593,154.907 39.796,158.243 39.319 C 158.881 39.227,159.437 39.118,159.479 39.076 C 159.521 39.034,160.444 39.000,161.530 39.000 L 163.505 39.000 163.461 43.625 M241.000 39.211 C 242.530 39.751,243.644 40.919,243.997 42.351 C 244.121 42.856,244.162 47.776,244.130 58.167 L 244.083 73.250 239.542 73.294 L 235.000 73.339 235.000 56.169 L 235.000 39.000 237.708 39.003 C 239.425 39.004,240.630 39.080,241.000 39.211 M179.333 46.147 C 176.537 46.984,174.667 49.364,174.667 52.088 L 174.667 52.504 181.042 52.460 C 186.609 52.422,187.409 52.385,187.357 52.167 C 187.324 52.029,187.261 51.617,187.217 51.250 C 187.060 49.964,186.273 48.189,185.606 47.618 C 185.410 47.450,185.081 47.168,184.874 46.990 C 184.667 46.812,184.401 46.667,184.282 46.667 C 184.164 46.667,183.995 46.602,183.908 46.523 C 183.263 45.937,180.731 45.729,179.333 46.147 M331.333 46.238 C 327.668 47.209,326.123 49.924,326.108 55.417 C 326.094 60.891,327.109 63.973,329.395 65.395 C 333.794 68.132,338.467 65.390,339.441 59.500 C 339.743 57.674,339.521 51.469,339.145 51.237 C 339.065 51.187,339.000 51.021,339.000 50.868 C 339.000 50.359,338.095 48.784,337.305 47.919 C 335.791 46.260,333.590 45.640,331.333 46.238 M212.667 46.496 C 212.529 46.575,212.157 46.736,211.840 46.854 C 207.136 48.610,206.163 60.197,210.355 64.540 C 210.688 64.884,211.009 65.167,211.067 65.167 C 211.125 65.167,211.470 65.354,211.833 65.583 C 212.196 65.813,212.705 66.000,212.963 66.000 C 213.222 66.000,213.515 66.081,213.614 66.181 C 213.802 66.369,215.820 66.309,216.750 66.088 C 219.673 65.393,221.395 62.895,221.865 58.667 C 222.580 52.222,220.908 47.910,217.167 46.550 C 216.508 46.311,213.062 46.270,212.667 46.496 M287.333 59.498 L 287.333 65.178 293.708 65.115 C 301.421 65.039,302.663 64.808,304.019 63.193 C 305.610 61.297,305.512 57.234,303.833 55.504 C 302.533 54.165,301.260 53.961,293.708 53.884 L 287.333 53.818 287.333 59.498 " stroke="none" fill="#fbfbfb" fill-rule="evenodd"></path><path id="path3" d="M47.292 12.455 C 47.681 12.490,48.319 12.490,48.708 12.455 C 49.098 12.420,48.779 12.392,48.000 12.392 C 47.221 12.392,46.902 12.420,47.292 12.455 M27.495 25.292 L 26.417 26.417 27.542 25.338 C 28.160 24.745,28.667 24.239,28.667 24.213 C 28.667 24.090,28.497 24.247,27.495 25.292 M36.742 26.208 L 36.083 26.917 36.792 26.258 C 37.181 25.895,37.500 25.577,37.500 25.550 C 37.500 25.423,37.355 25.550,36.742 26.208 M59.667 26.719 C 59.667 26.748,59.910 26.991,60.208 27.260 L 60.750 27.750 60.260 27.208 C 59.804 26.703,59.667 26.590,59.667 26.719 M71.083 28.000 C 71.720 28.642,72.279 29.167,72.324 29.167 C 72.370 29.167,71.887 28.642,71.250 28.000 C 70.613 27.358,70.055 26.833,70.009 26.833 C 69.963 26.833,70.447 27.358,71.083 28.000 M118.583 27.852 C 115.897 28.154,114.871 28.378,112.583 29.160 C 109.123 30.344,105.230 33.642,103.393 36.947 C 102.433 38.674,101.500 40.966,101.500 41.597 C 101.500 41.788,101.445 42.000,101.378 42.067 C 101.310 42.134,101.161 42.615,101.045 43.136 C 100.078 47.489,100.265 58.031,101.344 60.039 C 101.430 60.199,101.500 60.518,101.500 60.750 C 101.500 60.982,101.567 61.301,101.650 61.461 C 101.732 61.620,101.930 62.087,102.089 62.500 C 102.739 64.180,104.083 66.700,104.490 67.000 C 104.552 67.046,104.731 67.271,104.887 67.500 C 105.424 68.287,107.418 70.204,108.417 70.893 C 109.910 71.924,110.107 72.034,111.833 72.793 C 112.154 72.934,112.547 73.113,112.706 73.191 C 112.865 73.269,113.169 73.333,113.381 73.333 C 113.593 73.333,113.838 73.398,113.925 73.477 C 114.973 74.424,123.830 74.672,126.917 73.839 C 129.608 73.114,130.287 72.878,131.583 72.217 C 132.225 71.889,132.918 71.538,133.124 71.436 C 133.329 71.334,133.498 71.194,133.499 71.125 C 133.499 71.056,133.594 70.999,133.708 70.997 C 134.106 70.992,136.392 68.852,137.316 67.619 C 138.088 66.590,138.882 65.204,139.293 64.167 C 139.384 63.938,139.553 63.525,139.667 63.250 C 140.090 62.240,140.475 60.486,140.611 58.956 L 140.697 57.995 136.144 58.039 L 131.591 58.083 131.443 58.583 C 131.361 58.858,131.228 59.214,131.147 59.373 C 131.066 59.532,131.000 59.756,131.000 59.870 C 131.000 60.113,130.163 61.833,129.917 62.095 C 129.825 62.194,129.573 62.531,129.356 62.845 C 128.602 63.939,126.548 65.187,124.667 65.697 C 123.648 65.973,119.139 65.966,118.167 65.687 C 117.133 65.390,115.983 64.903,115.252 64.454 C 114.589 64.045,112.632 62.067,112.290 61.458 C 112.097 61.115,111.877 60.833,111.803 60.833 C 111.728 60.833,111.667 60.732,111.667 60.608 C 111.667 60.484,111.479 60.030,111.250 59.599 C 111.021 59.168,110.833 58.685,110.833 58.525 C 110.833 58.364,110.771 58.162,110.695 58.075 C 110.278 57.600,109.667 53.520,109.666 51.205 C 109.661 44.458,112.087 39.086,115.878 37.446 C 116.174 37.318,116.642 37.117,116.917 37.000 C 118.581 36.290,124.150 35.941,124.917 36.499 C 125.008 36.565,125.316 36.664,125.600 36.717 C 127.146 37.009,129.338 38.629,130.024 39.985 C 131.713 43.326,132.466 43.708,137.417 43.734 L 140.583 43.750 140.558 42.750 C 140.526 41.472,140.051 39.093,139.684 38.369 C 139.604 38.212,139.445 37.858,139.329 37.583 C 138.881 36.514,138.578 35.914,138.458 35.861 C 138.390 35.831,138.333 35.731,138.333 35.641 C 138.333 34.679,133.622 30.167,132.618 30.167 C 132.477 30.167,132.336 30.110,132.306 30.042 C 132.227 29.866,131.063 29.337,129.667 28.844 C 126.903 27.867,122.196 27.445,118.583 27.852 M126.333 28.307 C 128.042 28.623,128.685 28.791,130.250 29.327 C 132.836 30.213,136.156 32.703,137.482 34.750 C 137.719 35.117,137.955 35.454,138.007 35.500 C 138.778 36.190,140.772 42.591,140.403 43.189 C 140.194 43.527,133.532 43.356,132.824 42.995 C 131.938 42.543,131.233 41.746,130.693 40.583 C 130.151 39.418,128.226 37.333,127.693 37.333 C 127.587 37.333,127.500 37.258,127.500 37.167 C 127.500 37.075,127.365 37.000,127.200 37.000 C 127.035 37.000,126.829 36.936,126.742 36.857 C 126.444 36.589,124.917 36.204,123.302 35.991 C 120.344 35.599,117.229 36.269,114.750 37.830 C 112.602 39.183,110.819 41.938,110.110 45.000 C 109.561 47.367,109.500 47.975,109.500 51.054 C 109.500 59.244,112.096 63.967,117.582 65.754 C 120.044 66.557,124.330 66.423,126.039 65.491 C 126.199 65.404,126.408 65.333,126.506 65.333 C 127.405 65.333,129.769 63.033,130.595 61.354 C 131.460 59.595,131.444 59.634,131.573 59.048 C 131.767 58.163,131.800 58.157,136.271 58.205 C 141.004 58.256,140.506 58.028,140.193 60.000 C 139.964 61.441,139.758 62.311,139.503 62.917 C 139.387 63.192,139.234 63.567,139.163 63.750 C 138.402 65.718,137.052 67.776,135.583 69.206 C 134.749 70.019,131.813 72.000,131.442 72.000 C 131.291 72.000,131.167 72.066,131.167 72.147 C 131.167 72.228,130.998 72.334,130.792 72.382 C 130.585 72.429,130.004 72.619,129.500 72.804 C 128.652 73.114,127.917 73.302,125.500 73.826 C 124.364 74.073,116.977 73.976,115.750 73.698 C 114.111 73.327,112.424 72.788,111.384 72.303 C 109.355 71.357,107.345 69.920,106.089 68.520 C 105.384 67.733,103.831 65.651,103.651 65.250 C 103.568 65.067,103.427 64.804,103.338 64.667 C 103.248 64.529,103.018 64.042,102.825 63.583 C 102.633 63.125,102.378 62.525,102.258 62.250 C 102.138 61.975,101.951 61.413,101.842 61.000 C 101.733 60.587,101.580 60.025,101.502 59.750 C 100.403 55.886,100.268 48.715,101.206 44.083 C 101.392 43.167,101.580 42.172,101.624 41.873 C 101.667 41.575,101.770 41.289,101.852 41.239 C 101.933 41.188,102.000 41.011,102.000 40.845 C 102.000 40.564,102.197 40.058,103.030 38.197 C 105.431 32.833,110.421 29.420,117.667 28.188 C 118.815 27.993,125.102 28.079,126.333 28.307 M55.242 28.875 L 54.583 29.583 55.292 28.925 C 55.950 28.312,56.077 28.167,55.950 28.167 C 55.923 28.167,55.605 28.485,55.242 28.875 M222.252 29.022 C 222.205 29.148,222.148 32.325,222.125 36.083 L 222.083 42.917 221.167 41.938 C 219.773 40.449,217.331 38.833,216.475 38.833 C 216.342 38.833,216.162 38.766,216.075 38.683 C 215.497 38.133,210.332 38.147,208.750 38.702 C 207.780 39.043,205.500 40.197,205.500 40.348 C 205.500 40.431,205.406 40.501,205.292 40.502 C 205.021 40.505,203.383 42.059,202.745 42.917 C 202.473 43.283,202.127 43.720,201.977 43.887 C 201.563 44.346,200.145 47.264,199.815 48.333 C 198.742 51.818,198.340 57.094,198.917 60.110 C 199.054 60.829,199.167 61.656,199.167 61.948 C 199.167 62.241,199.242 62.527,199.333 62.583 C 199.425 62.640,199.500 62.940,199.500 63.250 C 199.500 63.560,199.575 63.860,199.667 63.917 C 199.758 63.973,199.833 64.135,199.833 64.276 C 199.833 64.899,201.416 68.001,202.383 69.271 C 203.637 70.920,206.131 72.546,208.333 73.150 C 208.746 73.263,209.308 73.421,209.583 73.502 C 212.620 74.386,219.026 73.965,221.917 72.691 C 222.100 72.611,222.475 72.449,222.750 72.332 C 223.234 72.127,224.574 71.463,225.245 71.096 C 227.302 69.972,230.000 66.691,230.000 65.313 C 230.000 65.152,230.075 64.973,230.167 64.917 C 230.258 64.860,230.333 64.626,230.333 64.396 C 230.333 64.166,230.415 63.825,230.515 63.638 C 231.104 62.539,231.477 34.169,230.928 32.318 C 230.539 31.010,229.613 29.867,228.417 29.220 C 227.723 28.845,222.383 28.674,222.252 29.022 M235.038 32.625 L 235.083 36.250 239.250 36.297 C 244.756 36.359,244.221 36.600,244.138 34.092 C 244.051 31.473,242.758 29.333,241.263 29.333 C 241.129 29.333,240.973 29.258,240.917 29.167 C 240.854 29.066,239.664 29.000,237.904 29.000 L 234.993 29.000 235.038 32.625 M246.778 29.111 C 246.603 29.286,246.657 67.093,246.833 68.452 C 246.919 69.113,247.058 69.788,247.142 69.952 C 247.226 70.116,247.392 70.458,247.511 70.713 C 248.024 71.807,249.150 72.627,250.833 73.131 C 251.600 73.360,258.095 73.566,259.729 73.413 L 261.007 73.294 260.962 69.855 L 260.917 66.417 259.000 66.325 C 255.519 66.158,255.833 67.255,255.833 55.266 L 255.833 45.500 256.818 45.500 C 258.373 45.500,260.667 44.012,260.667 43.003 C 260.667 42.855,260.745 42.655,260.840 42.560 C 260.943 42.457,260.993 41.721,260.965 40.735 L 260.917 39.083 258.417 39.000 L 255.917 38.917 255.875 35.750 C 255.850 33.819,255.760 32.421,255.644 32.167 C 254.385 29.413,253.608 29.000,249.686 29.000 C 248.147 29.000,246.839 29.050,246.778 29.111 M281.667 29.151 C 281.529 29.225,281.154 29.420,280.833 29.583 C 280.117 29.948,279.167 30.822,279.167 31.116 C 279.167 31.236,279.106 31.333,279.033 31.333 C 278.348 31.333,278.329 31.947,278.374 53.083 L 278.417 73.250 290.000 73.300 C 297.906 73.335,301.874 73.293,302.500 73.168 C 304.695 72.732,305.928 72.435,306.075 72.305 C 306.162 72.229,306.362 72.167,306.520 72.167 C 307.363 72.167,310.467 70.227,311.500 69.055 C 312.950 67.409,313.378 66.688,314.150 64.583 C 314.749 62.951,315.030 58.873,314.662 57.167 C 314.446 56.169,313.970 54.633,313.835 54.500 C 313.788 54.454,313.600 54.117,313.417 53.750 C 312.817 52.550,310.748 50.643,309.306 49.962 C 308.304 49.488,308.304 49.327,309.305 48.685 C 310.161 48.136,311.667 46.644,311.667 46.345 C 311.667 46.247,311.728 46.167,311.804 46.167 C 311.932 46.167,312.486 45.028,313.021 43.667 C 313.531 42.368,313.281 37.175,312.650 35.961 C 312.568 35.801,312.500 35.571,312.500 35.449 C 312.500 34.796,309.607 31.333,309.062 31.333 C 308.951 31.333,308.836 31.276,308.806 31.207 C 308.718 31.009,307.002 30.167,306.685 30.167 C 306.528 30.167,306.329 30.104,306.242 30.028 C 306.026 29.839,304.778 29.477,303.667 29.281 C 302.546 29.082,282.017 28.961,281.667 29.151 M227.917 29.333 C 227.973 29.425,228.132 29.500,228.270 29.500 C 228.639 29.500,229.980 30.816,230.392 31.583 L 230.750 32.250 230.746 47.083 C 230.742 60.745,230.719 61.996,230.449 62.917 C 230.287 63.467,230.075 64.217,229.977 64.583 C 229.073 67.969,226.365 70.686,222.417 72.168 C 222.233 72.237,221.783 72.407,221.417 72.545 C 221.050 72.684,220.450 72.873,220.083 72.965 C 219.717 73.057,219.042 73.226,218.583 73.341 C 217.365 73.645,212.653 73.747,211.245 73.500 C 210.606 73.388,209.802 73.259,209.457 73.214 C 209.113 73.169,208.790 73.064,208.739 72.982 C 208.688 72.900,208.483 72.833,208.282 72.832 C 207.957 72.831,205.798 71.845,204.917 71.295 C 204.238 70.872,202.070 68.543,201.687 67.825 C 200.803 66.167,200.500 65.523,200.500 65.301 C 200.500 65.172,200.436 64.995,200.357 64.908 C 199.813 64.304,198.823 58.676,198.839 56.276 C 198.852 54.398,199.587 49.839,200.147 48.167 C 202.131 42.240,206.933 38.447,212.417 38.476 C 215.985 38.494,218.071 39.373,220.613 41.929 C 221.455 42.775,222.186 43.425,222.238 43.373 C 222.291 43.321,222.333 40.103,222.333 36.222 L 222.333 29.167 225.073 29.167 C 226.720 29.167,227.855 29.233,227.917 29.333 M241.930 29.910 C 242.667 30.466,242.840 30.655,243.428 31.547 C 243.819 32.138,243.841 32.292,243.797 34.047 L 243.750 35.917 239.458 35.961 L 235.167 36.006 235.167 32.654 L 235.167 29.302 238.222 29.359 L 241.276 29.417 241.930 29.910 M252.688 29.445 C 253.068 29.520,253.578 29.884,254.264 30.570 C 255.486 31.791,255.496 31.833,255.498 35.803 C 255.501 39.613,255.276 39.333,258.339 39.333 L 260.833 39.333 260.833 40.662 C 260.833 43.481,259.411 45.039,256.583 45.318 L 255.583 45.417 255.583 55.372 L 255.583 65.328 256.202 65.946 L 256.820 66.565 258.827 66.636 L 260.833 66.708 260.833 69.937 L 260.833 73.167 257.136 73.167 C 249.750 73.167,248.310 72.610,247.282 69.356 C 246.991 68.433,246.825 29.731,247.111 29.444 C 247.256 29.300,251.956 29.300,252.688 29.445 M304.167 29.612 C 304.396 29.715,305.071 29.935,305.667 30.100 C 310.462 31.431,313.083 35.047,313.083 40.333 C 313.083 44.122,311.666 47.000,309.021 48.584 C 307.920 49.243,307.856 49.539,308.730 49.924 C 312.637 51.642,314.421 54.754,314.411 59.833 C 314.405 63.164,314.288 63.768,313.185 66.167 C 312.336 68.013,309.224 71.167,308.251 71.167 C 308.210 71.167,307.780 71.345,307.296 71.562 C 304.062 73.016,301.868 73.204,288.917 73.137 L 278.583 73.083 278.541 53.253 C 278.502 35.143,278.523 33.351,278.776 32.587 C 279.290 31.034,280.331 29.898,281.606 29.499 C 282.329 29.272,303.649 29.379,304.167 29.612 M29.906 32.708 L 29.417 33.250 29.958 32.760 C 30.256 32.491,30.500 32.248,30.500 32.219 C 30.500 32.090,30.362 32.203,29.906 32.708 M41.491 33.625 L 40.917 34.250 41.542 33.676 C 42.123 33.141,42.243 33.000,42.116 33.000 C 42.088 33.000,41.807 33.281,41.491 33.625 M377.500 36.021 C 376.082 36.404,374.000 38.437,374.000 39.439 C 374.000 39.501,373.830 39.784,373.622 40.068 C 373.413 40.351,373.132 40.808,372.997 41.083 C 372.861 41.358,372.706 41.621,372.651 41.667 C 372.595 41.712,372.361 42.092,372.129 42.510 C 371.898 42.928,371.324 43.884,370.854 44.633 C 370.384 45.383,370.000 46.033,370.000 46.078 C 370.000 46.123,369.754 46.555,369.453 47.038 C 369.153 47.521,368.802 48.123,368.675 48.375 C 368.361 48.997,368.095 48.951,367.706 48.208 C 367.222 47.285,366.738 46.440,366.259 45.681 C 366.025 45.310,365.833 44.966,365.833 44.917 C 365.833 44.867,365.640 44.521,365.404 44.147 C 365.168 43.773,364.781 43.118,364.543 42.692 C 364.306 42.265,363.956 41.649,363.764 41.322 C 363.573 40.995,363.192 40.339,362.917 39.864 L 362.417 39.000 357.458 39.000 C 353.212 39.000,352.500 39.035,352.500 39.244 C 352.500 39.505,354.155 42.212,354.371 42.306 C 354.442 42.336,354.500 42.431,354.500 42.517 C 354.500 42.659,355.293 43.967,355.500 44.167 C 355.548 44.212,355.734 44.531,355.914 44.875 C 356.095 45.219,356.300 45.500,356.371 45.500 C 356.442 45.500,356.500 45.577,356.500 45.670 C 356.500 45.873,357.362 47.226,357.542 47.306 C 357.610 47.336,357.667 47.442,357.667 47.540 C 357.667 47.638,357.854 47.964,358.083 48.265 C 358.313 48.565,358.500 48.891,358.500 48.989 C 358.500 49.087,358.575 49.167,358.667 49.167 C 358.758 49.167,358.833 49.253,358.833 49.359 C 358.833 49.465,359.021 49.798,359.250 50.098 C 359.479 50.399,359.667 50.724,359.667 50.822 C 359.667 50.920,359.742 51.000,359.833 51.000 C 359.925 51.000,360.000 51.080,360.000 51.178 C 360.000 51.276,360.188 51.601,360.417 51.902 C 360.646 52.202,360.833 52.502,360.833 52.569 C 360.833 52.635,361.021 52.935,361.250 53.235 C 361.479 53.536,361.667 53.868,361.667 53.974 C 361.667 54.080,361.742 54.167,361.833 54.167 C 361.925 54.167,362.000 54.247,362.000 54.344 C 362.000 54.442,362.188 54.769,362.418 55.070 L 362.835 55.617 362.418 56.233 C 362.188 56.571,362.000 56.888,362.000 56.936 C 362.000 56.984,361.662 57.497,361.250 58.075 C 360.837 58.653,360.500 59.177,360.500 59.241 C 360.500 59.304,360.313 59.601,360.083 59.902 C 359.854 60.202,359.667 60.535,359.667 60.641 C 359.667 60.747,359.604 60.833,359.527 60.833 C 359.450 60.833,359.244 61.132,359.068 61.498 C 358.893 61.864,358.694 62.164,358.625 62.165 C 358.556 62.166,358.500 62.247,358.500 62.344 C 358.500 62.442,358.313 62.768,358.083 63.069 C 357.854 63.369,357.667 63.695,357.667 63.794 C 357.667 63.892,357.610 63.997,357.542 64.028 C 357.400 64.091,356.500 65.441,356.500 65.591 C 356.500 65.645,356.313 65.935,356.083 66.235 C 355.854 66.536,355.667 66.862,355.667 66.960 C 355.667 67.058,355.609 67.164,355.538 67.194 C 355.370 67.267,353.667 69.965,353.667 70.158 C 353.667 70.239,353.602 70.331,353.524 70.361 C 353.195 70.489,351.663 73.176,351.873 73.256 C 351.991 73.301,354.410 73.318,357.250 73.294 L 362.413 73.250 362.759 72.554 C 362.949 72.172,363.186 71.759,363.285 71.638 C 363.440 71.447,363.819 70.792,364.568 69.417 C 364.668 69.233,364.787 69.046,364.833 69.000 C 364.879 68.954,364.998 68.767,365.098 68.583 C 365.909 67.097,366.670 65.783,367.130 65.077 C 367.247 64.897,367.387 64.619,367.441 64.458 C 367.495 64.298,367.591 64.167,367.655 64.167 C 367.719 64.167,367.874 63.904,368.000 63.583 C 368.294 62.835,368.552 62.846,368.961 63.625 C 369.337 64.343,369.784 65.131,370.352 66.081 C 370.784 66.802,371.111 67.401,371.987 69.076 C 372.300 69.676,372.619 70.167,372.695 70.167 C 372.771 70.167,372.833 70.317,372.833 70.500 C 372.833 70.683,372.892 70.833,372.963 70.833 C 373.035 70.833,373.182 71.040,373.291 71.292 C 373.533 71.853,374.050 72.742,374.332 73.081 C 374.576 73.375,384.564 73.468,384.743 73.178 C 384.796 73.093,384.256 72.136,383.544 71.053 C 382.833 69.970,382.221 69.008,382.185 68.917 C 382.150 68.825,381.878 68.412,381.582 68.000 C 381.286 67.587,380.648 66.612,380.165 65.833 C 379.681 65.054,379.221 64.392,379.143 64.361 C 379.064 64.331,379.000 64.235,379.000 64.149 C 379.000 64.009,378.211 62.706,378.002 62.500 C 377.955 62.454,377.842 62.289,377.750 62.133 C 377.658 61.978,376.871 60.755,376.000 59.417 C 375.129 58.079,374.343 56.838,374.252 56.659 C 374.162 56.480,374.030 56.333,373.960 56.333 C 373.633 56.333,373.892 55.375,374.417 54.645 C 374.738 54.198,375.000 53.784,375.000 53.724 C 375.000 53.664,375.188 53.369,375.417 53.069 C 375.646 52.768,375.833 52.448,375.833 52.358 C 375.833 52.268,375.897 52.169,375.974 52.139 C 376.086 52.095,378.132 49.004,378.917 47.695 C 379.008 47.542,379.327 47.069,379.625 46.644 C 379.923 46.220,380.167 45.795,380.167 45.700 C 380.167 45.605,380.226 45.503,380.298 45.472 C 380.407 45.426,381.658 43.542,383.083 41.277 C 383.267 40.985,383.848 40.092,384.375 39.292 C 384.902 38.491,385.333 37.799,385.333 37.753 C 385.333 37.707,385.502 37.476,385.708 37.239 C 386.100 36.790,386.366 36.088,386.205 35.927 C 386.046 35.768,378.120 35.853,377.500 36.021 M385.876 36.265 C 385.960 36.349,385.617 36.924,384.000 39.413 C 383.863 39.624,383.158 40.724,382.434 41.857 C 381.710 42.990,380.866 44.264,380.559 44.689 C 380.252 45.114,380.000 45.539,380.000 45.633 C 380.000 45.728,379.941 45.831,379.869 45.861 C 379.797 45.892,379.141 46.854,378.411 48.000 C 377.682 49.146,377.028 50.158,376.958 50.250 C 376.696 50.597,375.667 52.161,375.667 52.213 C 375.667 52.243,375.179 53.007,374.583 53.910 C 373.478 55.586,373.340 55.974,373.709 56.363 C 373.824 56.484,374.066 56.865,374.247 57.208 C 374.428 57.552,374.634 57.833,374.705 57.833 C 374.775 57.833,374.833 57.896,374.833 57.972 C 374.833 58.048,375.471 59.071,376.250 60.245 C 377.029 61.419,377.667 62.414,377.667 62.455 C 377.667 62.496,377.857 62.805,378.089 63.140 C 378.322 63.476,379.217 64.837,380.079 66.167 C 380.940 67.496,381.725 68.674,381.823 68.785 C 381.920 68.895,382.000 69.038,382.000 69.102 C 382.000 69.166,382.188 69.464,382.417 69.765 C 382.646 70.065,382.833 70.359,382.833 70.417 C 382.833 70.476,383.076 70.874,383.374 71.303 C 383.671 71.732,384.046 72.327,384.207 72.625 L 384.501 73.167 379.606 73.167 L 374.711 73.167 374.302 72.542 C 374.077 72.198,373.841 71.804,373.777 71.667 C 373.713 71.529,373.359 70.892,372.991 70.250 C 372.623 69.608,372.278 68.952,372.225 68.792 C 372.171 68.631,372.062 68.500,371.981 68.500 C 371.900 68.500,371.833 68.419,371.833 68.321 C 371.833 68.222,371.541 67.641,371.184 67.029 C 370.257 65.440,369.557 64.190,369.142 63.383 C 368.709 62.539,368.405 62.387,368.144 62.881 C 368.037 63.084,367.905 63.288,367.850 63.333 C 367.795 63.379,367.668 63.567,367.568 63.750 C 366.902 64.973,366.448 65.773,366.338 65.917 C 366.268 66.008,366.022 66.421,365.791 66.833 C 365.054 68.147,363.738 70.394,363.278 71.122 C 363.033 71.510,362.833 71.877,362.833 71.939 C 362.833 72.001,362.642 72.303,362.408 72.609 L 361.983 73.167 357.075 73.167 C 351.844 73.167,351.922 73.181,352.500 72.327 C 352.683 72.055,352.983 71.611,353.167 71.340 C 353.350 71.069,353.500 70.769,353.500 70.673 C 353.500 70.578,353.562 70.500,353.639 70.500 C 353.715 70.500,353.880 70.294,354.006 70.042 C 354.132 69.790,354.327 69.471,354.440 69.333 C 354.552 69.195,354.746 68.895,354.870 68.666 C 354.995 68.437,355.525 67.594,356.048 66.793 C 356.572 65.992,357.000 65.293,357.000 65.240 C 357.000 65.188,357.188 64.899,357.417 64.598 C 357.646 64.298,357.833 63.971,357.833 63.873 C 357.833 63.775,357.891 63.669,357.963 63.639 C 358.139 63.563,359.833 60.892,359.833 60.690 C 359.833 60.601,359.893 60.503,359.966 60.472 C 360.138 60.400,363.000 55.872,363.000 55.672 C 363.000 55.524,361.345 52.866,357.825 47.360 C 356.867 45.862,356.008 44.512,355.917 44.360 C 355.825 44.208,355.244 43.307,354.625 42.359 C 354.006 41.410,353.500 40.597,353.500 40.552 C 353.500 40.506,353.350 40.279,353.167 40.045 C 352.472 39.162,352.452 39.167,357.425 39.167 L 362.016 39.167 362.425 39.608 C 362.649 39.850,362.833 40.107,362.833 40.177 C 362.833 40.248,363.291 41.081,363.851 42.028 C 364.827 43.681,365.131 44.210,366.110 45.958 C 366.354 46.394,366.729 47.030,366.943 47.372 C 367.158 47.714,367.333 48.054,367.333 48.128 C 367.333 48.320,368.288 49.434,368.366 49.333 C 368.578 49.061,369.333 47.826,369.333 47.752 C 369.333 47.703,369.708 47.065,370.167 46.333 C 370.625 45.602,371.000 44.928,371.000 44.835 C 371.000 44.742,371.075 44.667,371.167 44.667 C 371.258 44.667,371.333 44.591,371.333 44.498 C 371.333 44.406,371.691 43.749,372.128 43.040 C 372.566 42.330,373.034 41.525,373.170 41.250 C 373.305 40.975,373.645 40.412,373.925 40.000 C 374.205 39.587,374.580 38.958,374.759 38.602 C 375.404 37.313,376.447 36.481,377.667 36.280 C 378.334 36.171,385.768 36.157,385.876 36.265 M287.278 36.778 C 287.217 36.839,287.167 38.976,287.167 41.528 L 287.167 46.167 293.613 46.167 C 300.053 46.167,300.412 46.140,301.775 45.558 C 304.340 44.462,304.930 40.094,302.795 38.002 C 302.420 37.634,301.988 37.333,301.835 37.333 C 301.681 37.333,301.499 37.277,301.431 37.209 C 300.995 36.772,287.688 36.367,287.278 36.778 M301.025 37.292 C 301.140 37.406,301.371 37.500,301.540 37.500 C 301.857 37.500,302.084 37.651,302.716 38.284 C 303.275 38.842,303.399 39.033,303.625 39.678 C 303.861 40.354,303.909 42.767,303.688 42.903 C 303.608 42.953,303.499 43.201,303.446 43.455 C 303.008 45.536,301.141 46.000,293.208 46.000 L 287.333 46.000 287.333 41.611 C 287.333 39.197,287.390 37.165,287.458 37.096 C 287.685 36.867,300.790 37.056,301.025 37.292 M178.500 38.326 C 178.362 38.419,177.950 38.497,177.583 38.499 C 176.705 38.505,175.315 38.915,174.127 39.519 C 173.968 39.600,173.766 39.667,173.677 39.667 C 173.434 39.667,171.722 40.729,171.163 41.227 C 170.892 41.469,170.608 41.667,170.533 41.667 C 170.386 41.667,169.209 42.995,168.467 43.996 C 167.764 44.946,166.833 46.666,166.833 47.016 C 166.833 47.191,166.774 47.333,166.701 47.333 C 166.507 47.333,165.959 49.253,165.656 51.000 C 164.922 55.220,165.214 60.669,166.342 63.833 C 166.833 65.211,167.126 65.872,167.710 66.917 C 169.345 69.842,172.782 72.572,175.833 73.369 C 178.649 74.104,184.821 74.174,185.575 73.479 C 185.662 73.399,185.948 73.333,186.210 73.333 C 186.836 73.333,189.997 71.906,190.640 71.333 C 190.794 71.196,191.294 70.798,191.750 70.448 C 192.948 69.532,195.333 66.466,195.333 65.844 C 195.333 65.662,195.398 65.513,195.877 64.583 C 196.019 64.308,196.188 63.727,196.253 63.292 L 196.371 62.500 192.982 62.500 C 188.391 62.500,188.082 62.577,186.565 64.112 C 183.787 66.919,178.895 67.060,176.627 64.398 C 176.419 64.155,176.175 63.872,176.083 63.769 C 175.912 63.579,175.496 62.740,175.205 62.000 C 174.996 61.470,174.667 59.701,174.667 59.115 L 174.667 58.667 185.661 58.667 C 196.360 58.667,196.660 58.658,196.827 58.344 C 197.035 57.956,197.034 55.067,196.826 53.333 C 196.450 50.202,196.258 49.344,195.502 47.417 C 194.853 45.759,193.133 42.940,192.503 42.500 C 192.437 42.454,191.994 42.079,191.517 41.667 C 190.739 40.994,189.160 39.978,188.500 39.726 C 188.362 39.674,187.991 39.516,187.674 39.375 C 185.719 38.505,179.320 37.774,178.500 38.326 M330.249 38.311 C 330.158 38.399,329.671 38.506,329.167 38.548 C 328.215 38.629,327.031 38.899,326.536 39.149 C 326.379 39.228,325.781 39.503,325.208 39.760 C 324.635 40.018,324.167 40.289,324.167 40.364 C 324.167 40.439,324.073 40.502,323.958 40.505 C 323.533 40.516,321.429 42.438,320.432 43.726 C 317.627 47.352,316.309 54.341,317.347 60.083 C 317.976 63.559,318.097 64.076,318.480 64.917 C 318.564 65.100,318.832 65.694,319.077 66.236 C 320.406 69.181,323.936 72.253,326.773 72.932 C 327.035 72.995,327.325 73.101,327.417 73.169 C 328.510 73.974,336.347 74.208,337.098 73.458 C 337.166 73.389,337.416 73.332,337.653 73.331 C 338.456 73.326,341.420 72.082,341.844 71.571 C 341.952 71.440,342.130 71.333,342.239 71.333 C 342.865 71.333,345.844 67.839,346.572 66.250 C 346.740 65.883,347.017 65.288,347.189 64.927 C 347.360 64.566,347.500 64.171,347.500 64.050 C 347.500 63.928,347.571 63.699,347.657 63.539 C 347.859 63.167,348.278 61.630,348.441 60.667 C 348.620 59.603,348.581 52.432,348.389 51.333 C 348.172 50.088,347.552 48.095,347.067 47.081 C 346.847 46.621,346.667 46.153,346.667 46.039 C 346.667 45.926,346.592 45.833,346.500 45.833 C 346.408 45.833,346.333 45.753,346.333 45.654 C 346.333 45.311,344.856 43.193,344.055 42.389 C 342.587 40.914,341.417 40.153,339.083 39.158 C 337.402 38.441,330.775 37.805,330.249 38.311 M183.167 38.672 C 185.797 38.903,189.174 39.973,190.000 40.837 C 190.046 40.885,190.308 41.067,190.583 41.242 C 193.149 42.872,195.094 46.153,196.170 50.667 C 196.719 52.969,196.877 58.217,196.403 58.399 C 196.258 58.454,191.265 58.500,185.307 58.500 L 174.474 58.500 174.550 59.708 C 174.676 61.700,175.177 63.060,176.301 64.456 C 178.630 67.349,184.680 67.203,186.865 64.202 C 186.985 64.037,187.377 63.680,187.737 63.409 L 188.391 62.917 192.110 62.857 C 196.349 62.789,196.258 62.757,195.750 64.131 C 193.856 69.252,190.135 72.353,184.608 73.416 C 182.131 73.892,176.926 73.640,175.627 72.980 C 175.468 72.899,175.225 72.833,175.086 72.833 C 174.780 72.833,172.443 71.611,171.750 71.088 C 169.089 69.080,166.748 65.355,166.144 62.167 C 163.933 50.487,167.501 41.677,175.417 39.273 C 175.967 39.106,176.647 38.901,176.928 38.818 C 177.210 38.735,177.960 38.661,178.595 38.655 C 179.230 38.649,179.900 38.575,180.083 38.492 C 180.267 38.409,180.679 38.384,181.000 38.437 C 181.321 38.489,182.296 38.595,183.167 38.672 M335.667 38.650 C 337.011 38.827,337.885 39.023,338.722 39.334 C 339.447 39.604,341.731 40.702,341.833 40.830 C 341.879 40.887,342.217 41.155,342.583 41.425 C 345.068 43.256,346.820 46.286,347.973 50.750 C 348.321 52.094,348.549 55.279,348.434 57.184 C 348.207 60.966,347.912 62.468,346.974 64.623 C 346.805 65.012,346.667 65.375,346.667 65.431 C 346.667 66.800,341.850 72.000,340.583 72.000 C 340.446 72.000,340.333 72.057,340.333 72.126 C 340.333 72.195,340.052 72.349,339.708 72.467 C 335.362 73.965,331.900 74.077,327.333 72.868 C 323.301 71.799,319.947 68.527,318.588 64.333 C 318.425 63.829,318.226 63.244,318.146 63.034 C 318.066 62.823,318.000 62.425,318.000 62.148 C 318.000 61.871,317.933 61.518,317.851 61.364 C 317.769 61.210,317.573 59.912,317.415 58.481 C 316.456 49.804,320.072 41.887,326.000 39.683 C 326.321 39.564,326.733 39.403,326.917 39.325 C 327.662 39.009,329.417 38.667,330.305 38.664 C 330.825 38.663,331.362 38.584,331.500 38.489 C 331.768 38.304,333.562 38.373,335.667 38.650 M159.479 39.076 C 159.437 39.118,158.881 39.227,158.243 39.319 C 151.355 40.305,147.065 43.661,145.044 49.644 C 144.335 51.742,144.289 52.505,144.224 63.128 L 144.162 73.339 148.706 73.294 L 153.250 73.250 153.346 63.250 C 153.421 55.532,153.493 53.117,153.664 52.667 C 154.897 49.416,156.332 48.592,161.167 48.359 L 163.417 48.250 163.461 43.625 L 163.505 39.000 161.530 39.000 C 160.444 39.000,159.521 39.034,159.479 39.076 M235.000 56.169 L 235.000 73.339 239.542 73.294 L 244.083 73.250 244.130 58.167 C 244.180 42.024,244.186 42.156,243.327 40.908 C 242.273 39.375,241.183 39.006,237.708 39.003 L 235.000 39.000 235.000 56.169 M163.252 39.542 C 163.303 39.748,163.323 41.754,163.297 44.000 L 163.250 48.083 160.667 48.182 C 159.246 48.237,157.896 48.338,157.667 48.407 C 155.572 49.041,154.323 50.242,153.494 52.417 C 153.104 53.442,152.998 55.977,152.999 64.292 L 153.000 73.167 148.667 73.167 L 144.333 73.167 144.337 64.208 C 144.341 53.986,144.475 52.100,145.380 49.500 C 147.456 43.539,151.912 40.285,159.083 39.494 C 159.908 39.403,160.696 39.301,160.833 39.267 C 161.819 39.025,163.163 39.178,163.252 39.542 M240.620 39.371 C 241.104 39.484,241.500 39.634,241.500 39.705 C 241.500 39.775,241.615 39.833,241.756 39.833 C 242.138 39.833,243.143 40.913,243.507 41.713 C 243.814 42.390,243.826 43.000,243.830 57.792 L 243.833 73.167 239.500 73.167 L 235.167 73.167 235.167 56.167 L 235.167 39.167 237.453 39.167 C 238.711 39.167,240.136 39.259,240.620 39.371 M54.824 41.458 L 54.250 42.083 54.875 41.509 C 55.219 41.193,55.500 40.912,55.500 40.884 C 55.500 40.757,55.359 40.877,54.824 41.458 M33.879 43.000 C 33.879 43.413,33.911 43.581,33.951 43.375 C 33.991 43.169,33.991 42.831,33.951 42.625 C 33.911 42.419,33.879 42.587,33.879 43.000 M80.411 51.333 C 80.411 55.871,80.432 57.727,80.458 55.458 C 80.484 53.190,80.484 49.477,80.458 47.208 C 80.432 44.940,80.411 46.796,80.411 51.333 M51.906 44.208 L 51.417 44.750 51.958 44.260 C 52.256 43.991,52.500 43.748,52.500 43.719 C 52.500 43.590,52.362 43.703,51.906 44.208 M43.667 45.219 C 43.667 45.248,43.910 45.491,44.208 45.760 L 44.750 46.250 44.260 45.708 C 43.804 45.203,43.667 45.090,43.667 45.219 M178.914 45.969 C 176.211 46.876,174.647 48.973,174.602 51.750 L 174.583 52.917 180.692 52.960 C 187.365 53.008,187.667 52.974,187.667 52.179 C 187.667 51.203,186.986 49.069,186.380 48.147 C 185.024 46.081,181.577 45.076,178.914 45.969 M330.850 46.103 C 328.676 46.847,326.667 48.790,326.667 50.149 C 326.667 50.305,326.599 50.505,326.516 50.592 C 325.596 51.560,325.603 58.792,326.528 61.663 C 327.914 65.965,331.905 67.897,335.694 66.099 C 337.044 65.458,339.167 62.714,339.167 61.610 C 339.167 61.468,339.232 61.313,339.311 61.264 C 339.708 61.019,339.940 53.367,339.600 51.750 C 338.674 47.350,334.701 44.786,330.850 46.103 M182.632 46.106 C 183.247 46.256,183.821 46.444,183.908 46.523 C 183.995 46.602,184.164 46.667,184.282 46.667 C 184.401 46.667,184.667 46.812,184.874 46.990 C 185.081 47.168,185.410 47.450,185.606 47.618 C 186.273 48.189,187.060 49.964,187.217 51.250 C 187.261 51.617,187.324 52.029,187.357 52.167 C 187.409 52.385,186.609 52.422,181.042 52.460 L 174.667 52.504 174.667 52.088 C 174.667 48.078,178.603 45.122,182.632 46.106 M213.000 46.144 C 210.570 46.679,208.521 49.164,207.759 52.500 C 207.285 54.574,207.576 60.621,208.179 61.242 C 208.264 61.329,208.332 61.516,208.331 61.658 C 208.322 62.554,210.291 65.125,211.442 65.720 C 212.840 66.443,216.589 66.863,216.917 66.333 C 216.973 66.242,217.164 66.167,217.341 66.167 C 219.055 66.167,221.505 62.858,222.031 59.833 C 223.595 50.842,219.545 44.703,213.000 46.144 M334.417 46.176 C 336.460 46.709,339.000 49.309,339.000 50.868 C 339.000 51.021,339.065 51.187,339.145 51.237 C 339.521 51.469,339.743 57.674,339.441 59.500 C 338.467 65.390,333.794 68.132,329.395 65.395 C 324.825 62.552,324.916 49.109,329.520 46.888 C 331.176 46.089,333.044 45.818,334.417 46.176 M217.167 46.550 C 220.908 47.910,222.580 52.222,221.865 58.667 C 221.395 62.895,219.673 65.393,216.750 66.088 C 215.820 66.309,213.802 66.369,213.614 66.181 C 213.515 66.081,213.222 66.000,212.963 66.000 C 212.705 66.000,212.196 65.813,211.833 65.583 C 211.470 65.354,211.125 65.167,211.067 65.167 C 211.009 65.167,210.688 64.884,210.355 64.540 C 206.163 60.197,207.136 48.610,211.840 46.854 C 212.157 46.736,212.529 46.575,212.667 46.496 C 213.062 46.270,216.508 46.311,217.167 46.550 M58.240 48.208 L 57.750 48.750 58.292 48.260 C 58.797 47.804,58.910 47.667,58.781 47.667 C 58.752 47.667,58.509 47.910,58.240 48.208 M69.742 49.208 L 69.083 49.917 69.792 49.258 C 70.450 48.645,70.577 48.500,70.450 48.500 C 70.423 48.500,70.105 48.819,69.742 49.208 M39.667 50.552 C 39.667 50.581,39.910 50.825,40.208 51.094 L 40.750 51.583 40.260 51.042 C 39.804 50.537,39.667 50.423,39.667 50.552 M287.242 53.876 C 287.198 53.991,287.182 56.598,287.206 59.668 L 287.250 65.250 293.750 65.299 C 298.353 65.333,300.445 65.291,300.917 65.153 C 303.054 64.528,304.138 63.768,304.840 62.403 C 305.602 60.921,305.401 57.051,304.504 55.933 C 303.578 54.779,302.786 54.297,301.167 53.902 C 299.880 53.588,287.362 53.565,287.242 53.876 M300.929 54.127 C 303.818 54.732,305.184 56.484,305.156 59.547 C 305.134 61.890,304.258 63.470,302.533 64.274 C 300.995 64.992,300.392 65.050,293.708 65.115 L 287.333 65.178 287.333 59.498 L 287.333 53.818 293.708 53.884 C 297.290 53.921,300.454 54.027,300.929 54.127 M62.824 55.792 L 62.250 56.417 62.875 55.842 C 63.219 55.526,63.500 55.245,63.500 55.217 C 63.500 55.090,63.359 55.210,62.824 55.792 M47.377 56.120 C 47.631 56.158,48.006 56.157,48.211 56.117 C 48.416 56.078,48.208 56.046,47.750 56.048 C 47.292 56.049,47.124 56.081,47.377 56.120 M60.075 58.375 L 59.417 59.083 60.125 58.425 C 60.784 57.812,60.910 57.667,60.784 57.667 C 60.757 57.667,60.438 57.985,60.075 58.375 M36.917 59.500 C 37.275 59.867,37.605 60.167,37.651 60.167 C 37.697 60.167,37.441 59.867,37.083 59.500 C 36.725 59.133,36.395 58.833,36.349 58.833 C 36.303 58.833,36.559 59.133,36.917 59.500 M75.333 70.583 C 74.928 70.996,74.635 71.333,74.681 71.333 C 74.726 71.333,75.095 70.996,75.500 70.583 C 75.905 70.171,76.199 69.833,76.153 69.833 C 76.107 69.833,75.738 70.171,75.333 70.583 M67.246 78.542 L 65.917 79.917 67.292 78.587 C 68.569 77.353,68.743 77.167,68.621 77.167 C 68.596 77.167,67.977 77.785,67.246 78.542 M31.083 81.000 C 31.905 81.825,32.614 82.500,32.660 82.500 C 32.706 82.500,32.071 81.825,31.250 81.000 C 30.429 80.175,29.719 79.500,29.674 79.500 C 29.628 79.500,30.262 80.175,31.083 81.000 " stroke="none" fill="#000000" fill-rule="evenodd"></path><path id="path4" d="M45.667 12.594 C 41.142 13.384,38.412 14.768,35.181 17.912 C 34.211 18.856,33.042 19.986,32.583 20.424 C 18.994 33.414,17.718 34.913,16.191 39.678 C 15.537 41.718,15.166 56.242,15.669 60.113 C 15.882 61.748,16.340 63.866,16.526 64.075 C 16.603 64.162,16.667 64.337,16.667 64.464 C 16.667 64.859,17.945 67.297,18.721 68.382 C 19.648 69.678,21.033 71.073,33.109 82.864 C 37.189 86.848,39.465 88.519,41.750 89.210 C 49.735 91.625,55.301 90.185,61.583 84.079 C 70.208 75.696,76.032 69.900,76.806 68.930 C 77.721 67.783,79.333 64.852,79.333 64.335 C 79.333 64.187,79.397 63.995,79.474 63.908 C 80.139 63.163,80.250 61.345,80.250 51.250 C 80.250 40.530,80.320 41.545,79.358 38.387 C 78.692 36.200,76.720 33.405,73.976 30.757 C 72.935 29.752,69.280 26.189,65.853 22.840 C 57.599 14.771,56.756 14.163,52.083 12.921 C 51.113 12.663,46.591 12.433,45.667 12.594 M51.405 12.995 C 51.686 13.083,52.367 13.278,52.917 13.428 C 54.680 13.908,57.991 15.527,58.500 16.158 C 58.546 16.215,58.808 16.432,59.083 16.641 C 59.534 16.983,70.530 27.703,74.794 31.956 C 76.326 33.485,78.000 35.677,78.000 36.154 C 78.000 36.253,78.075 36.333,78.167 36.333 C 78.258 36.333,78.333 36.406,78.333 36.495 C 78.333 36.585,78.511 37.053,78.729 37.537 C 78.946 38.021,79.205 38.717,79.304 39.083 C 79.403 39.450,79.603 40.162,79.748 40.667 C 79.979 41.468,80.005 42.846,79.957 51.583 C 79.903 61.459,79.842 62.606,79.327 63.539 C 79.239 63.699,79.167 63.943,79.167 64.083 C 79.167 64.223,79.101 64.468,79.022 64.627 C 78.942 64.786,78.591 65.500,78.243 66.212 C 77.894 66.924,77.509 67.590,77.388 67.691 C 77.266 67.792,77.167 67.971,77.167 68.090 C 77.167 68.208,77.110 68.331,77.042 68.361 C 76.973 68.392,76.645 68.754,76.313 69.167 C 75.743 69.875,74.340 71.273,67.024 78.426 C 65.341 80.071,62.963 82.403,61.738 83.609 C 59.378 85.934,57.391 87.471,55.750 88.241 C 54.320 88.912,54.202 88.954,51.667 89.697 C 50.678 89.987,44.586 89.986,44.296 89.696 C 44.188 89.588,43.943 89.500,43.752 89.500 C 43.378 89.500,41.738 88.960,41.555 88.777 C 41.494 88.716,41.276 88.667,41.069 88.667 C 40.863 88.667,40.669 88.610,40.639 88.542 C 40.608 88.473,40.283 88.270,39.917 88.091 C 38.262 87.281,36.393 85.740,32.833 82.250 C 30.771 80.228,27.958 77.475,26.583 76.133 C 20.762 70.451,20.021 69.694,19.194 68.583 C 18.717 67.942,18.253 67.326,18.163 67.215 C 18.073 67.105,18.000 66.898,18.000 66.757 C 18.000 66.616,17.925 66.500,17.833 66.500 C 17.742 66.500,17.667 66.425,17.667 66.333 C 17.667 66.240,17.479 65.776,17.250 65.301 C 17.021 64.826,16.833 64.338,16.833 64.217 C 16.833 64.095,16.765 63.865,16.681 63.706 C 15.971 62.359,15.917 61.468,15.917 51.250 C 15.917 42.620,15.950 41.315,16.188 40.583 C 16.337 40.125,16.551 39.412,16.664 39.000 C 16.917 38.077,17.935 35.932,18.451 35.234 C 18.662 34.951,18.833 34.664,18.833 34.597 C 18.833 34.531,18.927 34.377,19.042 34.255 C 19.156 34.133,19.625 33.595,20.083 33.058 C 20.542 32.522,21.929 31.109,23.167 29.918 C 24.404 28.727,27.681 25.534,30.448 22.823 C 36.328 17.061,37.014 16.431,38.342 15.566 C 38.750 15.300,39.108 15.027,39.139 14.958 C 39.169 14.890,39.282 14.835,39.389 14.836 C 39.496 14.837,39.996 14.638,40.500 14.394 C 41.593 13.863,41.787 13.790,43.083 13.420 C 43.633 13.264,44.271 13.075,44.500 13.002 C 45.101 12.810,50.798 12.804,51.405 12.995 M46.417 19.159 C 46.233 19.242,45.907 19.315,45.692 19.322 C 45.339 19.332,45.033 19.443,43.667 20.054 C 42.893 20.400,41.588 21.297,40.833 22.001 C 39.914 22.860,38.364 24.328,34.251 28.240 C 32.510 29.895,30.450 31.850,29.673 32.583 C 23.966 37.967,23.000 39.438,23.000 42.750 C 23.000 46.127,23.983 47.585,30.176 53.393 C 31.042 54.205,33.063 56.122,34.667 57.654 C 36.271 59.186,37.921 60.746,38.333 61.121 C 38.746 61.495,39.719 62.409,40.496 63.151 C 41.272 63.893,41.961 64.500,42.025 64.500 C 42.090 64.500,42.242 64.594,42.363 64.708 C 44.358 66.595,49.747 66.936,52.552 65.352 C 54.023 64.523,54.367 64.245,56.569 62.109 C 57.310 61.389,58.292 60.461,58.750 60.046 C 59.208 59.631,60.821 58.111,62.333 56.668 C 66.066 53.106,66.454 52.738,68.716 50.613 C 70.668 48.780,71.833 47.398,71.833 46.916 C 71.833 46.779,71.890 46.667,71.959 46.667 C 72.303 46.667,72.902 44.179,72.902 42.750 C 72.902 41.375,72.408 39.236,71.998 38.833 C 71.952 38.787,71.764 38.458,71.582 38.102 C 71.243 37.439,69.998 36.115,67.490 33.750 C 66.713 33.017,64.644 31.046,62.893 29.371 C 59.406 26.036,58.815 25.501,58.618 25.500 C 58.462 25.500,57.131 26.727,53.083 30.602 C 51.433 32.182,49.898 33.635,49.671 33.831 C 49.246 34.198,44.094 39.099,42.977 40.199 C 40.978 42.167,41.266 43.276,44.594 46.430 C 47.593 49.273,47.185 49.159,48.771 47.592 C 49.333 47.037,50.271 46.144,50.855 45.608 C 52.169 44.401,56.937 39.864,58.019 38.792 C 58.994 37.825,58.911 37.825,59.922 38.792 C 62.375 41.140,62.316 44.089,59.767 46.443 C 59.208 46.959,57.512 48.562,56.000 50.004 C 54.487 51.446,52.725 53.121,52.083 53.728 C 49.042 56.602,46.315 56.477,42.995 53.311 C 42.127 52.484,40.484 50.931,39.345 49.862 C 34.473 45.288,34.332 45.094,34.335 42.934 C 34.337 41.036,34.690 40.490,37.850 37.500 C 42.571 33.033,43.217 32.419,43.818 31.832 C 44.147 31.510,44.679 31.033,45.000 30.771 C 45.321 30.509,46.821 29.111,48.333 27.665 C 49.846 26.219,51.852 24.305,52.792 23.411 C 53.731 22.518,54.500 21.733,54.500 21.666 C 54.500 21.395,53.642 20.721,52.725 20.273 C 52.189 20.010,51.615 19.726,51.450 19.641 C 50.575 19.191,47.083 18.857,46.417 19.159 M51.445 19.956 C 52.628 20.412,54.167 21.361,54.167 21.635 C 54.167 21.784,46.722 28.935,45.095 30.348 C 44.735 30.661,44.167 31.179,43.832 31.500 C 43.497 31.821,42.705 32.571,42.070 33.167 C 34.157 40.601,34.079 40.698,34.091 43.000 C 34.103 45.168,34.388 45.538,40.417 51.198 C 41.150 51.887,42.350 53.024,43.083 53.725 C 46.169 56.674,49.228 56.784,52.092 54.047 C 53.341 52.853,58.355 48.101,59.877 46.668 C 62.562 44.141,62.676 41.391,60.204 38.799 C 58.917 37.450,59.271 37.300,55.667 40.735 C 54.887 41.477,52.832 43.434,51.099 45.084 C 49.365 46.734,47.852 48.177,47.735 48.292 C 47.344 48.677,47.092 48.500,44.640 46.121 C 40.981 42.570,40.995 42.364,45.182 38.417 C 45.960 37.683,47.943 35.800,49.590 34.232 C 51.236 32.664,52.854 31.126,53.185 30.815 C 53.517 30.504,54.818 29.275,56.078 28.083 C 57.338 26.892,58.437 25.891,58.521 25.860 C 58.721 25.786,59.345 26.336,62.912 29.732 C 67.245 33.857,68.309 34.860,69.309 35.764 C 72.750 38.877,73.610 43.392,71.474 47.128 C 70.798 48.311,70.553 48.555,60.919 57.667 C 60.095 58.446,58.670 59.807,57.752 60.691 C 52.776 65.485,51.718 66.069,48.000 66.074 C 44.434 66.080,43.111 65.407,39.088 61.542 C 36.648 59.197,34.463 57.120,30.994 53.844 C 26.051 49.177,24.794 47.858,24.311 46.833 C 22.893 43.821,22.893 41.693,24.309 38.667 C 24.746 37.732,26.316 36.054,29.833 32.759 C 31.537 31.163,36.477 26.482,38.917 24.151 C 41.883 21.318,42.087 21.147,43.333 20.465 C 45.608 19.219,48.985 19.007,51.445 19.956 " stroke="none" fill="#4cbc0c" fill-rule="evenodd"></path></g></svg>